<svg width="32" height="33" viewBox="0 0 32 33" fill="none" xmlns="http://www.w3.org/2000/svg">
<g clip-path="url(#clip0_1516_270)">
<path d="M16 32.5C24.8366 32.5 32 25.3366 32 16.5C32 7.66344 24.8366 0.5 16 0.5C7.16344 0.5 0 7.66344 0 16.5C0 25.3366 7.16344 32.5 16 32.5Z" fill="#627EEA"/>
<path d="M16.498 4.5V13.37L23.995 16.72L16.498 4.5Z" fill="white" fill-opacity="0.602"/>
<path d="M16.498 4.5L9 16.72L16.498 13.37V4.5Z" fill="white"/>
<path d="M16.498 22.4682V28.4952L24 18.1162L16.498 22.4682Z" fill="white" fill-opacity="0.602"/>
<path d="M16.498 28.4952V22.4672L9 18.1162L16.498 28.4952Z" fill="white"/>
<path d="M16.498 21.0731L23.995 16.7201L16.498 13.3721V21.0731Z" fill="white" fill-opacity="0.2"/>
<path d="M9 16.7201L16.498 21.0731V13.3721L9 16.7201Z" fill="white" fill-opacity="0.602"/>
</g>
<defs>
<clipPath id="clip0_1516_270">
<rect width="32" height="32" fill="white" transform="translate(0 0.5)"/>
</clipPath>
</defs>
</svg>
