<svg width="30" height="32" viewBox="0 0 30 32" fill="none" xmlns="http://www.w3.org/2000/svg">
<path d="M11.6248 4.96534L10.3115 5.18429C8.67743 4.06342 6.96013 3.07184 5.17489 2.2184C4.98586 2.11314 4.77993 2.04244 4.56657 2.00955C4.47931 1.99847 4.39125 2.02268 4.32157 2.07692C4.25498 2.13092 4.21143 2.20869 4.19991 2.29419C3.87739 4.56312 3.84266 6.86437 4.09658 9.14219L4.5849 11.2643L4.05158 11.8336C4.01088 11.8326 3.97046 11.8406 3.93307 11.8568C3.89568 11.8731 3.8622 11.8973 3.83492 11.9279C3.64659 11.9952 3.55325 12.0794 3.55325 12.2125C3.47826 12.2681 3.40326 12.2681 3.34659 12.2125C2.8316 12.1839 2.33494 12.4399 2.36328 12.9973C2.39439 13.4532 2.38828 13.9079 2.34494 14.3616L2.39161 14.4576C2.48605 14.553 2.63272 14.5878 2.8316 14.562C2.97049 15.4142 2.98326 16.2855 2.86993 17.1759L1.32163 17.6491C1.2383 17.6794 1.20108 17.648 1.20996 17.5548C1.31107 16.1434 1.62329 14.6277 2.14661 13.0074C2.41774 12.1033 2.79544 11.2353 3.27159 10.4222C3.31423 10.3579 3.33093 10.2796 3.31826 10.2032C2.96338 8.15223 2.86594 6.06416 3.02826 3.9885C3.09604 2.99594 3.25215 2.02696 3.49659 1.08155C3.51772 0.991057 3.56579 0.90928 3.63433 0.847245C3.70287 0.78521 3.78858 0.745898 3.87991 0.734607C3.94307 0.72752 4.00699 0.732664 4.06824 0.749765C4.44324 0.862608 4.8099 0.99566 5.18489 1.16577C7.46529 2.18721 9.62814 3.45794 11.6348 4.95524L11.6248 4.96534ZM26.8578 17.0714L26.8678 14.6647C27.3728 14.5333 27.5511 13.927 27.3928 12.866C27.3817 12.7557 27.3409 12.6505 27.2747 12.5621C27.2086 12.4736 27.1198 12.4051 27.0178 12.3641C26.7898 12.264 26.5547 12.1812 26.3145 12.1165H26.2312C26.1281 12.0306 26.0091 11.9665 25.8812 11.9279L25.6478 11.5961C25.7145 11.0571 25.8912 10.6765 26.1645 10.4677C26.1936 10.4489 26.2169 10.4221 26.2317 10.3905C26.2464 10.359 26.252 10.3238 26.2478 10.2891C26.2144 9.94357 26.0502 9.6244 25.7895 9.39819C25.9945 7.07734 26.0795 4.65208 25.6962 2.36998C25.6823 2.28701 25.6396 2.21175 25.5758 2.15773C25.5119 2.10371 25.4311 2.07446 25.3478 2.07524C25.2927 2.07472 25.2383 2.08803 25.1895 2.11398C23.2609 3.00726 21.3998 4.04246 19.6213 5.21124L18.308 4.89798C19.7317 3.84633 21.2227 2.89098 22.7712 2.03819C23.7314 1.51955 24.7353 1.08837 25.7712 0.749765C25.8572 0.723514 25.9488 0.722899 26.0351 0.747994C26.1215 0.773089 26.1988 0.822827 26.2578 0.891239C26.301 0.937012 26.333 0.992392 26.3512 1.05292C26.5034 1.55257 26.6128 2.04829 26.6795 2.54008C27.0439 5.24941 26.9911 7.85433 26.5212 10.3548C26.503 10.4463 26.5197 10.5413 26.5678 10.6209C27.7487 12.6703 28.4233 14.9771 28.5345 17.346C28.5345 17.4133 28.4972 17.4414 28.4228 17.4302L26.8578 17.0714Z" fill="#FCAF1E"/>
<path d="M10.3132 5.18259C9.48473 5.35626 8.68352 5.64295 7.93154 6.0348C6.8142 6.53555 5.80725 7.25707 4.96992 8.1569C4.53882 8.66104 4.24827 8.98946 4.09827 9.14217C3.84091 6.86422 3.87227 4.5624 4.1916 2.29248C4.20637 2.20564 4.25343 2.12779 4.32314 2.07488C4.39286 2.02196 4.47996 1.99798 4.5666 2.00785C4.72659 2.02806 4.94159 2.10385 5.17659 2.21669C6.95883 3.0753 8.67571 4.06776 10.3132 5.18259ZM25.7895 9.39648L24.4229 7.78638C23.0598 6.53756 21.4101 5.6519 19.623 5.20953C21.4037 4.04238 23.2638 3.004 25.1895 2.10217C25.2389 2.07983 25.2926 2.06913 25.3467 2.07088C25.4008 2.07262 25.4537 2.08677 25.5016 2.11224C25.5494 2.13771 25.5909 2.17385 25.6229 2.21791C25.6549 2.26198 25.6765 2.31282 25.6862 2.36659C26.0795 4.64027 25.9962 7.07564 25.7895 9.39648Z" fill="#C27627"/>
<path d="M18.3163 4.89628L19.6213 5.20954C21.4074 5.64897 23.057 6.53111 24.4212 7.77628C23.4993 7.38263 22.5494 7.05948 21.5796 6.80954C21.1789 6.69689 20.7567 6.68705 20.3513 6.78091C20.3268 6.78707 20.3041 6.79876 20.2847 6.8151C20.2654 6.83143 20.25 6.85199 20.2396 6.87522C20.2292 6.89762 20.2238 6.92206 20.2238 6.9468C20.2238 6.97154 20.2292 6.99598 20.2396 7.01838L21.5046 9.85122C21.3624 9.96575 21.3563 10.1044 21.4863 10.2672C21.5329 10.3245 21.6729 10.4373 21.9079 10.5889C21.3413 10.7304 20.753 10.7405 20.183 10.6175L19.283 10.5603C19.3508 9.91915 19.338 9.4807 19.2447 9.24491C19.0947 8.86596 18.7197 8.25964 18.1397 7.44449C17.9093 7.09269 17.5937 6.80622 17.223 6.61227C16.8523 6.41832 16.4386 6.32331 16.0214 6.33628C14.8528 6.2866 13.6824 6.29616 12.5148 6.36491C12.0276 6.40152 11.5465 6.4965 11.0815 6.64785C10.7448 6.74554 10.5448 6.99817 10.4815 7.40575C10.2804 8.44849 10.2355 9.51583 10.3481 10.5721L8.63318 10.7405C8.54985 10.7405 8.52152 10.7977 8.53985 10.8752L8.70818 11.9531L8.62485 14.5872C8.62485 14.663 8.63318 14.7287 8.66151 14.8062C8.70929 14.9735 8.73429 15.1374 8.73651 15.298C8.71985 16.1687 8.71985 17.0024 8.71985 17.7788C8.71985 18.1308 8.59652 18.4609 8.70818 18.7843C8.72818 18.8685 8.71818 18.9359 8.68151 19.0116C8.64326 19.0714 8.58725 19.1174 8.52152 19.143C8.49263 19.1531 8.48318 19.1722 8.49318 19.2003C8.50318 19.2289 8.52152 19.239 8.53985 19.2474C8.62207 19.2676 8.66263 19.3215 8.66151 19.4091V21.3695C8.66151 21.4459 8.62429 21.5026 8.54985 21.5396L8.32485 21.6356L7.47154 21.4554L7.63987 15.4108C7.63987 15.3053 7.58376 15.2424 7.47154 15.2222C7.3782 15.2222 7.29321 15.2222 7.20988 15.2508C7.11432 15.2789 7.06099 15.2407 7.04988 15.1363C6.91655 14.2189 6.8821 13.461 6.94655 12.8626C6.98488 12.4365 6.84321 12.1889 6.49655 12.1333C6.46379 12.1292 6.43299 12.1152 6.40807 12.0934C6.38314 12.0715 6.36521 12.0426 6.35656 12.0104C6.26119 11.7281 6.26119 11.4219 6.35656 11.1396L7.06821 10.978C7.63153 10.8634 7.99653 10.6175 8.40819 10.2773C8.44242 10.2492 8.4688 10.2126 8.48473 10.1711C8.50067 10.1295 8.50559 10.0845 8.49903 10.0405C8.49246 9.9964 8.47463 9.95483 8.4473 9.91987C8.41997 9.88491 8.38408 9.85777 8.34319 9.84112C8.11967 9.73006 7.87339 9.67386 7.62434 9.67708C7.37529 9.6803 7.13051 9.74285 6.90988 9.85964L7.93153 6.04322C8.67933 5.64268 9.48116 5.355 10.3115 5.18933L11.6248 4.96196C13.7752 4.81238 15.9335 4.81913 18.083 4.98217C18.1297 4.98217 18.1663 4.98217 18.2047 4.96196L18.3163 4.89628Z" fill="#FFDE41"/>
<path d="M7.92988 6.03308L6.90823 9.86129C5.95158 10.1442 5.17493 10.6192 4.58328 11.2626L4.09662 9.14045C4.24662 8.98887 4.53661 8.66719 4.96827 8.15519C5.80652 7.25899 6.8134 6.54095 7.92988 6.04319V6.03308Z" fill="#FDC90E"/>
<path d="M19.283 10.5636L18.5613 10.6192C18.4437 10.5255 18.2994 10.4723 18.1497 10.4676C15.8753 10.3917 13.5991 10.3917 11.3248 10.4676C11.2131 10.4766 11.1059 10.5162 11.0148 10.5822L10.3598 10.5721C10.2265 9.67269 10.2648 8.61163 10.4815 7.40742C10.5465 6.99984 10.7531 6.74553 11.0815 6.64953C11.5481 6.48953 12.0181 6.40363 12.5148 6.36658C13.6824 6.29783 14.8528 6.28828 16.0214 6.33795C16.968 6.375 17.588 6.67816 18.138 7.44616C18.7213 8.26132 19.0963 8.86595 19.2463 9.2449C19.3396 9.48237 19.3496 9.91858 19.283 10.5721V10.5636Z" fill="#FFF073"/>
<path d="M24.4195 7.77796L25.7895 9.39649C26.0479 9.62525 26.2115 9.94394 26.2478 10.2891C26.254 10.3254 26.2494 10.3627 26.2346 10.3963C26.2198 10.4299 26.1954 10.4582 26.1645 10.4778C25.8812 10.6765 25.7145 11.0453 25.6478 11.5944C24.7479 10.5721 22.9579 9.33081 21.5046 9.85123L20.2296 7.02007C20.2192 6.99767 20.2138 6.97323 20.2138 6.94849C20.2138 6.92375 20.2192 6.89931 20.2296 6.87691C20.2409 6.8525 20.2579 6.83119 20.2791 6.81477C20.3002 6.79836 20.325 6.78733 20.3513 6.78259C20.7527 6.68291 21.1732 6.69279 21.5696 6.81123C22.5079 7.04702 23.4445 7.37038 24.4195 7.77796Z" fill="#FDC90E"/>
<path d="M6.35655 11.148C6.06489 11.1649 5.78156 11.2407 5.52323 11.3754C5.32123 11.3829 5.12282 11.4316 4.93991 11.5186L4.04993 11.8301L4.57492 11.2626C5.21657 10.5889 6.02489 10.1038 6.91821 9.85961C7.35987 9.62382 7.83819 9.62382 8.34318 9.84277C8.38315 9.86043 8.41793 9.88822 8.44415 9.92346C8.47037 9.95869 8.48714 10.0002 8.49284 10.0439C8.49854 10.0876 8.49297 10.132 8.47668 10.1729C8.46039 10.2138 8.43392 10.2498 8.39985 10.2773C7.99652 10.6175 7.63153 10.8651 7.0682 10.9779L6.35655 11.1396V11.148ZM25.6479 11.5943L25.8812 11.9245C25.8367 11.975 25.7623 11.9722 25.6579 11.916C25.3762 11.6028 24.8979 11.5371 24.5979 11.4327C24.4116 11.3714 24.2203 11.3269 24.0262 11.2996L23.3146 11.1295C23.1591 11.0674 22.9934 11.0354 22.8262 11.0352C22.4952 10.9473 22.184 10.7957 21.9096 10.5889C21.7561 10.5001 21.6139 10.3926 21.4863 10.2689C21.3563 10.1061 21.3624 9.96684 21.5046 9.85119C22.9579 9.32908 24.7479 10.5703 25.6479 11.5943Z" fill="#343228"/>
<path d="M18.5613 10.6192L18.3363 11.7005L18.1863 11.8521C17.963 11.897 17.7163 11.9189 17.4463 11.9177C15.5336 11.9018 13.6208 11.9046 11.7081 11.9262C11.5603 11.9284 11.4548 11.897 11.3914 11.8319C11.3082 11.7441 11.2324 11.6494 11.1648 11.5489C11.1931 11.3215 11.1481 10.9982 11.0148 10.5822C11.1079 10.5219 11.2145 10.486 11.3248 10.4777C13.5988 10.3888 15.8753 10.3854 18.1496 10.4676C18.308 10.4676 18.4496 10.5249 18.5613 10.6192Z" fill="#FE0246"/>
<path d="M10.3498 10.5721H11.0065C11.1465 10.9982 11.1931 11.3199 11.1648 11.5489C10.9165 12.1552 10.8081 12.8121 10.8465 13.4689C10.8494 13.5208 10.8353 13.5722 10.8064 13.6151C10.7775 13.6581 10.7353 13.6902 10.6865 13.7064C10.6525 13.7142 10.6172 13.7142 10.5831 13.7064C10.3598 13.6795 10.2465 13.7637 10.2365 13.9927C10.2282 14.3986 10.1348 15.1481 10.5198 15.4125C10.5638 15.4417 10.6004 15.4811 10.6265 15.5273C10.6525 15.5736 10.6674 15.6254 10.6698 15.6786L10.7615 20.4988C10.7606 20.5694 10.7338 20.6372 10.6865 20.6891C10.5355 20.8547 10.3499 20.9841 10.1432 21.0681C10.0913 20.9815 10.0594 20.8842 10.0498 20.7835C9.98538 19.2407 9.9726 17.7502 10.0115 16.3119C10.0115 15.9717 9.98482 15.6382 9.89983 15.3266C9.74983 14.6917 9.74983 14.0971 9.91816 13.5464C10.0782 13.0344 10.0115 12.5039 10.0115 11.9733C10.0115 11.8891 9.96483 11.8403 9.88983 11.8319C9.49284 11.7611 9.0842 11.8037 8.70985 11.9548L8.53152 10.8752C8.52152 10.7994 8.54985 10.7523 8.63485 10.7422L10.3498 10.5721Z" fill="#F88E05"/>
<path d="M19.283 10.5637L20.1729 10.6209L20.1179 11.6432C20.1179 11.719 20.0713 11.7578 20.0046 11.7578H19.1713L18.3363 11.7005L18.5613 10.6209L19.283 10.5637Z" fill="#F76D04"/>
<path d="M21.9079 10.5906C22.1796 10.7994 22.4796 10.951 22.8263 11.0369C22.9679 11.3401 23.0146 11.6617 22.9496 12.0019C22.9296 12.0777 22.8546 12.1165 22.7229 12.1367L22.1713 12.0306L20.7463 11.8622C20.653 11.8622 20.6246 11.8891 20.643 11.9834C20.7546 12.4567 20.783 12.9316 20.7096 13.3763C20.7012 13.4531 20.7103 13.5309 20.7363 13.6036C20.9696 14.1914 20.943 14.7405 20.643 15.271C20.6056 15.3341 20.586 15.4063 20.5863 15.4798L20.6796 21.4655C20.2016 21.4129 19.7537 21.2035 19.4047 20.8693C19.388 19.2693 19.3963 17.6777 19.4047 16.0946C19.4047 15.7443 19.453 15.4125 19.528 15.1093C19.6213 14.7506 19.6496 14.3514 19.6213 13.9354C19.6113 13.7367 19.4897 13.6323 19.358 13.4992C19.304 13.4432 19.271 13.37 19.2647 13.2921L19.1713 11.7662L20.0046 11.7561C20.0713 11.7561 20.1091 11.7184 20.118 11.6432L20.1846 10.6192C20.7538 10.742 21.3431 10.7322 21.9079 10.5906Z" fill="#FCAF1E"/>
<path d="M22.8246 11.0369C23.0129 11.0369 23.1729 11.0757 23.3129 11.1312C23.3229 11.5776 23.3029 12.0121 23.2463 12.4483C23.1811 12.881 23.1438 13.3176 23.1346 13.7552C23.1346 15.6584 23.0596 17.5632 22.9463 19.4681C22.9196 19.7039 22.9846 20.2832 23.1163 21.1927L22.5829 21.4386L22.4596 21.4201C22.4488 20.5417 22.4238 19.6635 22.3846 18.786C22.3735 18.4155 22.3957 18.0556 22.4513 17.7064C22.5257 17.2315 22.5629 16.8744 22.5629 16.6352C22.5913 15.1195 22.6379 13.6239 22.7229 12.1367C22.8529 12.1165 22.9279 12.0795 22.9463 12.002C23.0058 11.6753 22.9633 11.3381 22.8246 11.0369Z" fill="#D3D743"/>
<path d="M6.35653 11.1497C6.26306 11.4294 6.26306 11.7324 6.35653 12.012C6.37542 12.0861 6.42209 12.1271 6.49653 12.135C6.84319 12.1922 6.98486 12.4381 6.94652 12.8642C6.87986 13.4621 6.91819 14.22 7.03986 15.1379C7.05985 15.2322 7.11485 15.2811 7.20985 15.2525C7.29681 15.2204 7.39085 15.2134 7.48151 15.2322C7.58596 15.2435 7.63873 15.3069 7.63984 15.4226L7.47151 21.4571L7.44318 21.4857L6.69319 21.2398L6.28154 21.0108C6.28546 20.9827 6.28233 20.9541 6.27243 20.9276C6.26252 20.9011 6.24617 20.8776 6.22487 20.8592C6.17091 20.8095 6.1346 20.7432 6.12154 20.6706C5.97713 20.0686 5.89888 19.4524 5.88821 18.8331C5.88821 18.3682 6.13154 18.1981 6.43153 17.9337L6.43987 17.9135C6.44171 17.9085 6.44237 17.9032 6.44179 17.8979C6.44121 17.8927 6.43941 17.8876 6.43653 17.8832C6.43396 17.8786 6.43036 17.8747 6.42602 17.8718C6.42168 17.8688 6.41671 17.867 6.41153 17.8663L6.38487 17.8765C6.16709 18.0168 5.98265 18.0482 5.83154 17.9708C5.79659 17.9538 5.76727 17.927 5.74715 17.8935C5.72703 17.86 5.71698 17.8213 5.71821 17.7821C5.67289 16.831 5.58559 15.8824 5.45655 14.9392C5.40989 14.6461 5.50322 14.4659 5.73655 14.2958C5.76798 14.2692 5.79291 14.2356 5.80939 14.1976C5.82586 14.1596 5.83345 14.1183 5.83154 14.0769L5.67155 12.6285C5.66514 12.574 5.64569 12.522 5.61488 12.4769C5.5117 12.3152 5.44925 12.1304 5.43298 11.9387C5.41671 11.747 5.44712 11.5542 5.52155 11.3771C5.75488 11.244 6.03821 11.1682 6.35487 11.1413L6.35653 11.1497Z" fill="#E8DA26"/>
<path d="M23.3163 11.1312L24.0279 11.3013C24.0412 12.496 23.9785 13.6862 23.8396 14.8719C23.8029 15.1582 23.8213 15.6129 23.8779 16.2563C23.9529 17.0698 23.8779 18.6714 23.6429 21.0782L23.2963 21.154L23.1179 21.191C22.9863 20.2815 22.9313 19.7039 22.9396 19.4664C23.0638 17.5652 23.1266 15.6605 23.1279 13.7552C23.1279 13.4335 23.1746 12.9973 23.2496 12.4483C23.3052 12.0126 23.3274 11.5736 23.3163 11.1312Z" fill="#BDD467"/>
<path d="M24.0262 11.3013C24.2175 11.3296 24.406 11.3747 24.5895 11.4361C24.8979 11.5287 25.3679 11.6045 25.6578 11.9076C25.5319 12.2095 25.4804 12.5378 25.5078 12.8643C25.6567 14.818 25.669 16.7694 25.5445 18.7186C25.4978 19.1711 25.5045 19.623 25.5645 20.0744L23.6429 21.0782C23.8762 18.6714 23.9512 17.0698 23.8762 16.2462C23.8186 15.7911 23.803 15.3316 23.8295 14.8735C23.9718 13.7069 24.0345 12.5168 24.0179 11.303L24.0262 11.3013Z" fill="#89BE9B"/>
<path d="M5.53158 11.3771C5.38047 11.7858 5.41158 12.1524 5.62491 12.4769L5.67158 12.6285L5.82157 14.0769C5.82861 14.1186 5.82355 14.1615 5.80698 14.2004C5.79042 14.2392 5.76307 14.2724 5.72824 14.2959C5.50325 14.4643 5.40992 14.6462 5.44658 14.9392C5.58825 15.906 5.67158 16.8525 5.72824 17.7822C5.72824 17.8664 5.76491 17.9237 5.83157 17.9708C5.98268 18.0483 6.16712 18.0169 6.3849 17.8765H6.43156V17.9338C6.13157 18.1982 5.87824 18.3683 5.88824 18.8331C5.88824 19.458 5.97157 20.0643 6.12157 20.6807C6.13356 20.7491 6.16616 20.812 6.2149 20.8609C6.23939 20.8769 6.25873 20.8998 6.27057 20.9267C6.28241 20.9536 6.28623 20.9834 6.28157 21.0125L4.88493 20.3304L4.90326 19.4108C4.90676 19.1165 4.89117 18.8222 4.85659 18.53C4.7624 17.706 4.74009 16.8753 4.78993 16.0475C4.82659 15.3008 4.84882 14.5496 4.85659 13.794C4.85659 13.0445 4.88493 12.2782 4.93992 11.5203C5.12283 11.4333 5.32125 11.3846 5.52325 11.3771H5.53158Z" fill="#D3D743"/>
<path d="M4.94156 11.5186C4.8849 12.2764 4.85657 13.0445 4.84657 13.7922C4.84657 14.5501 4.82823 15.308 4.7799 16.0474C4.73546 16.8794 4.76101 17.7063 4.85657 18.5282C4.89545 18.8235 4.91101 19.1172 4.90323 19.4091L4.8849 20.3287L4.45324 20.14C4.46523 19.7377 4.42432 19.3356 4.33158 18.9442C4.24353 18.6243 4.20529 18.2925 4.21824 17.9607C4.25824 17.3128 4.26158 16.6655 4.22824 16.0188L4.27491 13.0916C4.27491 12.7042 4.27491 12.3522 4.23824 12.0491C4.23824 11.9733 4.19158 11.9261 4.11658 11.916C4.02158 11.916 3.92825 11.916 3.83325 11.9362C3.8596 11.9039 3.89266 11.8777 3.9301 11.8597C3.96754 11.8417 4.00844 11.8321 4.04991 11.8318L4.94156 11.5186Z" fill="#BDD467"/>
<path d="M11.1565 11.5489L11.3898 11.8335C11.4542 11.8975 11.5609 11.929 11.7098 11.9278C13.6219 11.906 15.5342 11.9026 17.4464 11.9177C17.718 11.9177 17.963 11.8992 18.1963 11.8504L18.253 15.623C18.2535 15.6668 18.237 15.7091 18.2072 15.7408C18.1773 15.7726 18.1363 15.7913 18.093 15.7931C18.0584 15.792 18.0239 15.7981 17.9918 15.8112C17.9597 15.8242 17.9306 15.8439 17.9064 15.8689C17.8819 15.8888 17.8629 15.9148 17.8512 15.9443C17.8396 15.9738 17.8356 16.0058 17.8397 16.0373C17.9452 16.8345 17.8952 17.6182 17.6897 18.3885L16.988 16.9855C16.9791 16.9646 16.9661 16.9457 16.9497 16.9299L16.603 16.5796C16.5871 16.5627 16.576 16.5419 16.5707 16.5192C16.5654 16.4964 16.5662 16.4727 16.573 16.4504C16.5798 16.4281 16.5923 16.4081 16.6093 16.3923C16.6263 16.3765 16.6472 16.3656 16.6697 16.3607L16.9697 16.2765C17.0908 16.2495 17.1186 16.1799 17.053 16.0676C16.8557 15.7683 16.6743 15.4585 16.5097 15.1396C16.3612 14.8579 16.1437 14.6194 15.8779 14.447C15.6121 14.2746 15.307 14.174 14.9917 14.1549C14.6764 14.1358 14.3615 14.1988 14.0773 14.3379C13.793 14.477 13.5488 14.6875 13.3681 14.9493C13.1169 15.3079 12.8977 15.6883 12.7131 16.0862C12.6687 16.1793 12.6937 16.249 12.7881 16.295L12.9948 16.3893C13.0881 16.4365 13.1064 16.4937 13.0598 16.5796L11.6815 19.2878C11.5404 19.6595 11.3715 20.0261 11.1748 20.3876C11.0337 20.6324 10.812 20.8906 10.5098 21.1624C10.2427 21.3848 9.99768 21.633 9.77817 21.9034L8.41986 21.6845C9.04652 21.6025 9.62151 21.3976 10.1448 21.0697C10.3515 20.9858 10.5371 20.8563 10.6882 20.6908C10.7339 20.6385 10.7578 20.5702 10.7548 20.5005L10.6598 15.6786C10.6583 15.6266 10.6448 15.5756 10.6205 15.5297C10.5963 15.4839 10.5618 15.4443 10.5198 15.4142C10.1365 15.148 10.2282 14.4003 10.2382 13.9927C10.2482 13.7653 10.3598 13.6794 10.5748 13.708C10.6093 13.7157 10.6451 13.7153 10.6795 13.707C10.7139 13.6986 10.7459 13.6825 10.7732 13.6598C10.8005 13.6371 10.8223 13.6084 10.837 13.5759C10.8518 13.5434 10.859 13.508 10.8581 13.4723C10.8148 12.8154 10.9215 12.1586 11.1665 11.5489H11.1565Z" fill="#F76D04"/>
<path d="M18.3364 11.7005L19.1797 11.7662L19.2647 13.282C19.2648 13.3229 19.2731 13.3635 19.2891 13.4011C19.3052 13.4387 19.3286 13.4727 19.358 13.5009C19.4913 13.6323 19.6113 13.7367 19.6213 13.9354C19.6497 14.3514 19.6213 14.7506 19.528 15.1093C19.4547 15.4136 19.4136 15.742 19.4047 16.0946C19.3963 17.6778 19.388 19.2693 19.4047 20.8693C19.1712 20.8035 18.9707 20.6514 18.843 20.4432C18.5955 20.0427 18.3761 19.6251 18.1864 19.1936L17.6897 18.3885C17.8941 17.6183 17.9441 16.8351 17.8397 16.039C17.8338 16.0079 17.8359 15.9757 17.8458 15.9457C17.8558 15.9156 17.8732 15.8886 17.8964 15.8672C17.9206 15.8422 17.9497 15.8226 17.9818 15.8095C18.0139 15.7965 18.0484 15.7903 18.083 15.7914C18.1052 15.7919 18.1272 15.7879 18.1478 15.7796C18.1684 15.7713 18.1872 15.759 18.203 15.7433C18.2189 15.7276 18.2314 15.7089 18.24 15.6883C18.2486 15.6676 18.253 15.6454 18.253 15.623L18.1864 11.8504L18.3364 11.7005Z" fill="#F88E05"/>
<path d="M10.1431 21.068C9.61797 21.3946 9.02988 21.6042 8.41816 21.6828L8.32483 21.6356L8.54983 21.5413C8.62427 21.5031 8.66149 21.4464 8.66149 21.3712V19.4091C8.66371 19.3226 8.62316 19.2693 8.53982 19.2491C8.51982 19.248 8.50427 19.2322 8.49316 19.2019C8.49316 19.1733 8.49316 19.1548 8.52149 19.1447C8.58684 19.1183 8.64227 19.0717 8.67982 19.0116C8.70329 18.9793 8.7182 18.9414 8.72316 18.9016C8.72812 18.8619 8.72295 18.8214 8.70816 18.7842C8.59649 18.4642 8.72649 18.1223 8.72649 17.7805C8.71816 17.004 8.72649 16.1703 8.73649 15.2979C8.73427 15.1407 8.70927 14.9768 8.66149 14.8061C8.63737 14.7357 8.62498 14.6617 8.62482 14.5872L8.71816 11.9548C9.09481 11.8043 9.48536 11.7633 9.8898 11.8318C9.9648 11.8402 10.0115 11.8891 10.0115 11.9733C10.0115 12.5038 10.0781 13.0343 9.91813 13.5463C9.7498 14.0954 9.7498 14.6832 9.8998 15.3266C9.98424 15.6409 10.0215 15.9694 10.0115 16.3118C9.97369 17.7535 9.98313 19.2468 10.0398 20.7918C10.0548 20.8887 10.0863 20.9822 10.1331 21.068H10.1431Z" fill="#FCAF1E"/>
<path d="M22.1713 12.0323C22.2546 12.6857 22.1796 13.3005 21.9546 13.8984C21.8796 14.087 21.9079 14.4373 22.0296 14.9678C22.1246 15.3182 22.1429 15.6786 22.1046 16.039C22.0667 16.5749 22.0606 17.1125 22.0863 17.6491C22.1146 18.151 22.1146 18.6815 22.1046 19.2323C22.0863 19.7897 22.1046 20.3859 22.1796 21.0209C22.1907 21.1657 22.2185 21.3145 22.2629 21.4672L21.6463 21.5986L20.6896 21.4672L20.5863 15.4798C20.583 15.4073 20.5991 15.3351 20.633 15.271C20.9418 14.7478 20.973 14.192 20.7263 13.6036C20.6983 13.5312 20.6925 13.452 20.7096 13.3763C20.7791 12.9121 20.7564 12.4386 20.643 11.9834C20.6246 11.8891 20.653 11.8521 20.7463 11.8605L22.1713 12.0323Z" fill="#FFDE41"/>
<path d="M3.83327 11.9261C3.92724 11.9126 4.02264 11.9126 4.1166 11.9261C4.18993 11.9261 4.2366 11.9733 4.2366 12.0491C4.26493 12.3523 4.28327 12.7026 4.27493 13.0916C4.26604 14.229 4.25049 15.3659 4.22827 16.5021C4.24827 17.0029 4.24493 17.4891 4.21827 17.9607C4.20514 18.2931 4.24338 18.6255 4.3316 18.9459C4.42493 19.3434 4.4616 19.751 4.45326 20.1485L4.26493 20.1299C4.03762 19.9134 3.75464 19.7657 3.44828 19.7038C3.41881 19.6408 3.37588 19.5851 3.32256 19.5408C3.26925 19.4966 3.20688 19.4648 3.13995 19.4478C3.15338 19.4013 3.16011 19.3531 3.15995 19.3047C3.25328 19.3434 3.31828 19.3148 3.33662 19.239C3.3855 19.0492 3.40162 18.86 3.38495 18.6714C3.28828 17.1657 3.31939 15.7229 3.47828 14.343C3.69494 13.6878 3.71161 12.9788 3.55328 12.2007C3.55328 12.0777 3.64661 11.9918 3.83327 11.9261Z" fill="#AAD182"/>
<path d="M25.6562 11.9077C25.7495 11.975 25.8345 11.975 25.8812 11.9245C26.029 11.975 26.1445 12.0385 26.2278 12.1148C26.0028 12.6083 26.1162 13.442 26.1062 13.9809C26.1062 14.0853 26.1245 14.1813 26.1812 14.247C26.2562 14.3615 26.3412 14.4087 26.4345 14.4087C26.6489 14.3997 26.7928 14.4845 26.8662 14.663V17.0714C26.8945 17.1557 26.9212 17.2314 26.9212 17.3072C26.8656 17.5834 26.8567 17.8546 26.8945 18.1207C26.8681 18.1503 26.8477 18.1849 26.8346 18.2225C26.8214 18.26 26.8157 18.2999 26.8178 18.3397C26.8648 18.5754 26.8557 18.819 26.7912 19.0504C26.6962 19.1447 26.6412 19.239 26.6412 19.3333C26.5641 19.3911 26.5051 19.47 26.4712 19.5607C26.4467 19.6393 26.4689 19.7027 26.5378 19.751L26.6778 19.8554C26.392 19.9204 26.1313 20.0686 25.9278 20.2815C25.789 20.1311 25.664 20.0615 25.5529 20.0727C25.4999 19.6229 25.4999 19.1684 25.5529 18.7186C25.6617 16.7682 25.6462 14.8127 25.5062 12.8643C25.4801 12.5406 25.5315 12.2154 25.6562 11.9161V11.9077Z" fill="#5879AE"/>
<path d="M22.1713 12.0289L22.7329 12.1249C22.6441 13.6264 22.588 15.1296 22.5646 16.6336C22.5646 16.8727 22.5268 17.2298 22.4512 17.7047C22.3959 18.0617 22.3742 18.4232 22.3862 18.7843C22.4262 19.6567 22.4512 20.5348 22.4612 21.4184C22.4044 21.4596 22.3337 21.4765 22.2646 21.4656C22.2237 21.3202 22.1958 21.1714 22.1813 21.0209C22.1159 20.4226 22.0903 19.8206 22.1046 19.2188C22.1229 18.6799 22.1046 18.1494 22.0863 17.639C22.061 17.1058 22.0671 16.5715 22.1046 16.039C22.1395 15.6803 22.1141 15.3181 22.0296 14.9679C21.9063 14.4334 21.8813 14.0764 21.9546 13.8967C22.1796 13.3005 22.2546 12.6841 22.1713 12.0306" fill="#E8DA26"/>
<path d="M26.3145 12.1165C26.529 12.1647 26.7662 12.2467 27.0262 12.3623C27.1261 12.4063 27.2132 12.4756 27.2789 12.5635C27.3446 12.6515 27.3867 12.755 27.4012 12.8642C27.5512 13.9253 27.3728 14.5316 26.8678 14.6647C26.7945 14.485 26.6501 14.3997 26.4345 14.4087C26.2212 13.7451 26.1828 12.9872 26.3145 12.1165ZM3.34828 12.2209L3.31994 12.2765C3.30828 12.3074 3.30828 12.3415 3.31994 12.3725C3.55327 13.1101 3.50605 13.7922 3.17828 14.4188L2.84162 14.5602C2.63496 14.5889 2.48496 14.5602 2.39163 14.4457C2.37015 14.4197 2.35407 14.3896 2.34434 14.3572C2.3346 14.3248 2.33141 14.2908 2.33496 14.2571C2.37163 13.8781 2.38163 13.452 2.3633 12.9973C2.33496 12.428 2.83329 12.1821 3.34828 12.2209Z" fill="#FE0246"/>
<path d="M3.33828 12.2209C3.40495 12.2681 3.47828 12.2681 3.55494 12.2024C3.71327 12.9771 3.69494 13.6896 3.47828 14.3413C3.37365 14.343 3.27088 14.3696 3.17828 14.4188C3.50661 13.7839 3.55328 13.1102 3.30995 12.3725C3.2987 12.3421 3.2987 12.3086 3.30995 12.2782L3.33828 12.2209Z" fill="#2E241C"/>
<path d="M17.6913 18.3885L18.188 19.1935L17.9247 19.3451C17.7663 19.4782 17.663 19.4967 17.5963 19.4024L16.9497 18.2841C16.883 18.2358 16.858 18.1914 16.8747 18.151C17.108 17.4874 16.9497 17.0058 16.388 16.674C16.2708 16.6118 16.144 16.5702 16.013 16.551C15.7875 16.5027 15.6747 16.4269 15.6747 16.3236H15.8164C15.9197 16.3124 15.938 16.2675 15.8714 16.1889C15.5547 15.783 15.2347 14.8836 14.5131 15.3182C14.2131 15.4984 14.1197 15.8874 13.9031 16.1519C13.8364 16.2276 13.8464 16.2866 13.9497 16.3135C14.0498 16.3305 14.1524 16.3242 14.2497 16.295C14.2331 16.4836 14.0831 16.551 13.7831 16.5022C13.7096 16.4903 13.6344 16.5002 13.5664 16.5308C12.8253 16.9025 12.6187 17.4773 12.9464 18.2554C12.9375 18.3015 12.9098 18.3239 12.8631 18.3228C12.8348 18.3228 12.8064 18.3228 12.7798 18.3396C12.5798 18.7001 12.3764 19.0571 12.1698 19.4108C12.132 19.4883 12.0759 19.504 12.0015 19.458L11.6815 19.2879L13.0598 16.578C13.1064 16.4938 13.0781 16.4365 12.9931 16.3893L12.7881 16.295C12.6937 16.2479 12.6687 16.1782 12.7131 16.0862C12.8998 15.6786 13.1248 15.2996 13.3698 14.9493C13.5512 14.6891 13.7955 14.48 14.0793 14.3419C14.3632 14.2038 14.6772 14.1412 14.9917 14.1601C15.3062 14.179 15.6107 14.2787 15.8763 14.4499C16.142 14.621 16.36 14.8578 16.5097 15.138C16.678 15.4698 16.8664 15.7729 17.053 16.0676C17.1197 16.1704 17.0914 16.2462 16.9597 16.2748L16.668 16.3607C16.6465 16.3678 16.6267 16.3793 16.6097 16.3944C16.5937 16.4107 16.5821 16.4308 16.576 16.4529C16.5698 16.4751 16.5694 16.4984 16.5747 16.5207C16.5804 16.5414 16.5901 16.5609 16.603 16.578L16.9497 16.93C16.9664 16.9389 16.9791 16.9575 16.988 16.9855L17.6913 18.3885Z" fill="black"/>
<path d="M3.46827 14.3413C3.30971 15.7757 3.28182 17.2218 3.38494 18.6613C3.40138 18.8518 3.3856 19.0437 3.33827 19.2289C3.30994 19.3249 3.25494 19.3434 3.15994 19.3047C3.08494 19.2104 2.99161 19.1733 2.89661 19.1918L2.80328 18.5283C2.84162 18.5283 2.85995 18.4525 2.86995 18.2723C2.92662 17.9947 2.92945 17.7088 2.87828 17.4301C2.93495 17.3459 2.92495 17.2584 2.87828 17.1742C2.98524 16.3045 2.96953 15.4238 2.83162 14.5586L3.17828 14.4171C3.27101 14.3684 3.37378 14.3425 3.47827 14.3413H3.46827Z" fill="#89BE9B"/>
<path d="M15.6747 16.3219C15.2135 16.1668 14.7166 16.1568 14.2497 16.2933C14.153 16.3259 14.0496 16.3322 13.9497 16.3118C13.8553 16.2826 13.8397 16.2293 13.9031 16.1518C14.1197 15.8857 14.2131 15.4883 14.5131 15.3182C15.2347 14.8819 15.543 15.7813 15.8714 16.1889C15.938 16.2647 15.918 16.3118 15.8164 16.3118L15.6747 16.3219Z" fill="#FFDE41"/>
<path d="M15.6747 16.3236C15.6747 16.4263 15.7863 16.5122 16.0213 16.551C16.1517 16.573 16.2781 16.6144 16.3963 16.6739C16.958 17.0057 17.108 17.4975 16.8747 18.151C16.6863 18.2638 16.6963 18.407 16.5647 18.5586C16.4713 18.654 16.3774 18.6506 16.283 18.5485C16.2392 18.5049 16.1821 18.4776 16.121 18.4709C16.06 18.4642 15.9984 18.4784 15.9463 18.5114C15.9145 18.5317 15.8864 18.5574 15.863 18.5872C15.724 18.7882 15.6224 19.013 15.563 19.2508C15.403 19.8183 14.5497 19.8941 14.3064 19.335C14.2195 19.1298 14.1193 18.9306 14.0064 18.7388C13.8653 18.503 13.6775 18.4553 13.4431 18.5956C13.3753 18.6405 13.3131 18.6349 13.2564 18.5788L12.9464 18.2554C12.6186 17.4762 12.8247 16.9013 13.5647 16.5308C13.6327 16.5002 13.7079 16.4902 13.7814 16.5021C14.0814 16.551 14.2314 16.4752 14.248 16.295C14.7147 16.1569 15.2147 16.167 15.6747 16.3219" fill="#836042"/>
<path d="M26.9245 17.3072L28.4528 17.6575C28.5278 17.676 28.5745 17.7249 28.5745 17.8091L28.6211 18.4255C28.6322 18.4929 28.6011 18.5181 28.5278 18.5013L26.8962 18.1207C26.8589 17.8499 26.8685 17.5746 26.9245 17.3072ZM2.87995 17.4301C2.93517 17.7084 2.93176 17.9954 2.86995 18.2722C2.85995 18.2183 2.83495 18.1965 2.79495 18.2066C2.25385 18.3593 1.73552 18.5266 1.23998 18.7085C1.18331 18.727 1.16498 18.7085 1.16498 18.6613L1.18331 17.932C1.18442 17.9017 1.19998 17.886 1.22998 17.8849L2.87995 17.4301Z" fill="#FCAF1E"/>
<path d="M12.8614 18.3211C13.3297 19.0133 14.4547 20.2361 15.4397 19.6853C16.043 19.3417 16.5597 18.8617 16.9497 18.2841L17.6047 19.4024C17.6602 19.4967 17.7663 19.4776 17.923 19.3451C18.1013 19.8083 18.2996 20.2546 18.533 20.6807C18.7663 21.1085 19.2352 21.5127 19.9396 21.8933C16.498 22.4238 13.1147 22.4323 9.77814 21.9034C9.9948 21.6474 10.2448 21.3998 10.5081 21.1624C10.7687 20.9435 10.9908 20.6815 11.1648 20.3876C11.3692 20.025 11.5414 19.6584 11.6814 19.2878L11.9981 19.458C12.0748 19.4967 12.1314 19.4866 12.1681 19.4108C12.3759 19.0571 12.5792 18.7006 12.7781 18.3413C12.8066 18.3255 12.839 18.3185 12.8714 18.3211H12.8614Z" fill="#F8C137"/>
<path d="M26.8112 18.3413L28.4328 18.7388C28.5728 18.7674 28.6395 18.8617 28.6295 19.0049L28.6211 19.3552C28.6111 19.4883 28.5461 19.5438 28.4145 19.4967L26.7928 19.052C26.8579 18.8208 26.8677 18.5771 26.8212 18.3413H26.8112ZM2.80329 18.54L2.89829 19.1935L1.30332 19.7426C1.20999 19.7712 1.17332 19.7426 1.17332 19.6483L1.15332 19.1093C1.15554 19.0139 1.19999 18.9566 1.28665 18.9375L2.80329 18.5299V18.54Z" fill="#FCAF1E"/>
<path d="M18.183 19.1935C18.3713 19.6196 18.5963 20.0356 18.8413 20.4432C18.9714 20.6492 19.1709 20.8006 19.403 20.8693C19.7418 21.2006 20.1696 21.3999 20.6863 21.4672L21.6429 21.5986L19.928 21.8933C19.359 21.6297 18.875 21.2094 18.5313 20.6807C18.2961 20.2511 18.0923 19.8047 17.9213 19.3451L18.183 19.1935Z" fill="#E69A22"/>
<path d="M26.6412 19.3434L28.3862 19.8167C28.4595 19.8453 28.5078 19.8925 28.5078 19.9784C28.5245 20.3657 28.4595 20.7733 28.2912 21.2078L26.6795 19.8554L26.5379 19.751C26.4729 19.7038 26.4445 19.6365 26.4729 19.5607C26.5077 19.4733 26.566 19.3974 26.6412 19.3417M3.14164 19.4462C3.27163 19.4742 3.37441 19.5596 3.44996 19.7022L1.53833 21.3493C1.36974 20.9766 1.27356 20.5747 1.255 20.1653C1.255 20.0895 1.30334 20.0323 1.37834 20.0137L3.14164 19.4462Z" fill="#FCAF1E"/>
<path d="M3.44997 19.7055C3.76996 19.7706 4.04218 19.9127 4.26662 20.1316C3.51663 20.7463 2.94498 21.3055 2.52332 21.7889C2.35332 21.9792 2.13999 22.311 1.86666 22.7826C1.64333 23.6763 1.71555 24.5353 2.08332 25.3594C2.31665 25.8916 2.61665 26.1931 2.98331 26.279C3.5733 26.4221 4.50995 26.4306 4.78327 25.7114C4.80767 25.6366 4.8572 25.5729 4.92327 25.5312C5.54993 25.1522 5.79492 25.0849 6.06658 24.167L6.67491 21.4386C6.68078 21.4188 6.6814 21.3978 6.67672 21.3777C6.67204 21.3576 6.66222 21.3391 6.64824 21.324C6.59991 21.2685 6.60991 21.2398 6.69491 21.2398L7.44489 21.4857L7.17323 24.2815C7.10156 25.2399 6.74485 26.154 6.14992 26.9038C5.99992 27.1026 5.91659 27.1901 5.87825 27.1598C5.3166 27.1598 4.76328 27.207 4.22829 27.3215C3.86329 27.4057 3.59163 27.4445 3.4133 27.4546C3.03831 27.4546 2.75665 27.4158 2.57998 27.3198C1.98658 27.0265 1.47211 26.5926 1.08036 26.0551C0.688618 25.5176 0.4312 24.8923 0.330024 24.2327C0.290025 24.016 0.190026 23.975 0.0300293 24.1097C0.0850283 23.8352 0.0850285 23.5607 0.196693 23.3148C0.526687 22.604 0.966679 21.9506 1.53833 21.3527L3.44997 19.7055ZM26.6795 19.8571L28.2928 21.2112C28.8262 21.7614 29.2012 22.2032 29.4178 22.5367C29.7928 23.1059 29.9795 23.7493 29.9995 24.4786C29.7928 24.6217 29.5961 24.9165 29.3895 25.3325C29.0612 26.0516 28.1328 27.084 27.2429 27.2743C26.8679 27.3586 26.4929 27.3973 26.1179 27.4057C25.9679 27.4057 25.6679 27.3501 25.2079 27.2171C24.8551 27.1225 24.484 27.1225 24.1313 27.2171L23.7546 26.8381C23.197 26.0324 22.8637 25.0901 22.7896 24.1097C22.5887 23.2348 22.5196 22.3343 22.5846 21.4386L23.1179 21.1927L23.3063 21.1539C23.4007 22.3082 23.6413 23.3917 24.0279 24.4045C24.1029 24.7076 24.2146 24.9249 24.3279 25.0478C24.9279 25.6626 25.7512 25.8242 26.5679 25.9943C26.697 26.0229 26.8306 26.0233 26.9599 25.9957C27.0892 25.9682 27.2112 25.9131 27.3179 25.8343C27.4295 25.7586 27.5512 25.5497 27.6928 25.2365C27.8124 24.9547 27.947 24.6798 28.0962 24.4129C28.3495 23.9581 28.3495 23.4276 28.0762 22.8028C27.8793 22.3337 27.5927 21.9084 27.2329 21.5514C26.8166 21.107 26.3789 20.6838 25.9212 20.2832C26.127 20.0732 26.3868 19.9256 26.6712 19.8571H26.6795Z" fill="#0193CF"/>
<path d="M25.5545 20.0744C25.6656 20.0631 25.7906 20.1327 25.9295 20.2832C26.3795 20.6891 26.8212 21.1068 27.2428 21.5514C27.6195 21.95 27.8973 22.3671 28.0761 22.8028L27.0178 23.7678C26.1545 24.5358 25.0679 24.3085 24.0179 24.4028C23.6346 23.3573 23.3919 22.2646 23.2962 21.1539L23.6429 21.0781L25.5545 20.0744ZM4.26658 20.1299L4.45325 20.1468L4.88491 20.3287L6.29155 21.0108L6.69487 21.2381C6.60987 21.2381 6.59987 21.2668 6.64654 21.3325C6.67487 21.351 6.68487 21.3897 6.67487 21.4268L6.06655 24.1653C5.15941 24.3812 4.20793 24.3016 3.34827 23.9379C3.07763 23.7782 2.82838 23.584 2.60661 23.3602C2.3811 23.1372 2.1292 22.9432 1.85663 22.7826C2.13829 22.3076 2.35329 21.9758 2.52328 21.7872C3.05977 21.1887 3.64273 20.6345 4.26658 20.1299Z" fill="#C9EBF4"/>
<path d="M22.4612 21.4167L22.5829 21.4352C22.5151 22.3267 22.584 23.2177 22.7896 24.1081C22.4429 24.3438 22.1996 24.5796 22.0762 24.8373L20.6796 25.8125C19.2506 26.8592 17.5711 27.5016 15.8144 27.6733C14.0577 27.845 12.2875 27.5399 10.6864 26.7893C10.1248 26.5333 9.2148 25.9641 7.98649 25.0647L7.17151 24.2782L7.45317 21.4824L7.46317 21.4554L8.32482 21.6441C8.35315 21.6441 8.39149 21.6626 8.41815 21.6828L9.77813 21.9017C13.1147 22.4306 16.4997 22.4205 19.9296 21.9017L21.6462 21.5969L22.2629 21.4638C22.3296 21.4739 22.3962 21.4638 22.4512 21.4167H22.4612Z" fill="#1D140E"/>
<path d="M20.0813 23.5321C20.0813 23.1144 20.138 22.7641 20.2596 22.4609L21.3379 22.3194C21.4413 22.3009 21.4879 22.3481 21.4596 22.4525C21.3016 23.1902 21.0624 23.9076 20.7463 24.5914C20.5963 24.8946 20.503 24.8777 20.4463 24.5544C20.3903 24.1932 20.2664 23.8462 20.0813 23.5321ZM9.61983 22.4794C10.322 22.8095 10.4748 23.1728 10.0782 23.5691C9.78816 23.4849 9.57316 23.6365 9.4515 24.0239C9.37606 24.239 9.32245 24.4613 9.2915 24.6874C9.2615 24.8862 9.19928 24.8957 9.10484 24.7161C8.73457 24.0144 8.48118 23.2559 8.35485 22.471C8.33485 22.3778 8.37207 22.3368 8.46652 22.3481L9.61983 22.4794Z" fill="#D7C8AE"/>
<path d="M9.61814 22.4811C13.2081 22.8584 16.743 22.8398 20.2579 22.4609C20.1363 22.764 20.0713 23.1245 20.0796 23.532C16.733 23.8537 13.3964 23.8722 10.0781 23.5708C10.4715 23.1716 10.3215 22.8129 9.6098 22.4811H9.61814Z" fill="#F3ECD9"/>
<path d="M1.85665 22.7842C2.13887 22.9527 2.38887 23.1419 2.60664 23.3518C2.9433 23.6735 3.1883 23.8638 3.33829 23.9396C4.19746 24.303 5.1483 24.3825 6.05491 24.167C5.79325 25.0849 5.54992 25.1522 4.9316 25.5312C4.86177 25.5711 4.80852 25.635 4.7816 25.7114C4.50994 26.4306 3.57162 26.4221 2.98163 26.279C2.60664 26.1847 2.31498 25.8916 2.08165 25.3611C1.71667 24.5536 1.63724 23.6439 1.85665 22.7842ZM28.0762 22.8011C28.3395 23.4276 28.3578 23.9581 28.0945 24.4129C27.9078 24.7447 27.7762 25.0192 27.6828 25.2381C27.5495 25.5593 27.4306 25.758 27.3262 25.8343C27.2183 25.9146 27.0946 25.9704 26.9634 25.998C26.8323 26.0256 26.6968 26.0244 26.5662 25.9943C25.7512 25.8259 24.9262 25.6626 24.3262 25.0478C24.1769 24.86 24.0741 24.6388 24.0262 24.4028C25.0679 24.3084 26.1545 24.5375 27.0162 23.7695L28.0762 22.8011Z" fill="#04BAEA"/>
<path d="M17.8197 24.0137C18.5047 23.9851 19.1697 23.9851 19.8363 24.0137C19.9113 24.0137 19.9663 24.0508 20.023 24.1081C20.2763 24.3927 20.398 24.7245 20.1446 25.0849C19.7697 25.6238 19.2647 26.0028 18.618 26.2015C17.1547 26.6563 15.4764 27.0352 13.9581 26.7994C13.17 26.6789 12.388 26.5204 11.6148 26.3245C10.8354 26.1481 10.1344 25.7193 9.61818 25.1034C9.57382 25.0503 9.55013 24.9826 9.55151 24.9131C9.58151 24.2417 9.9065 23.9262 10.5265 23.9666C11.6898 24.0424 12.8714 24.1266 14.0598 24.1081C15.3547 24.0895 16.6097 24.0508 17.8197 24.0137Z" fill="#2E241C"/>
<path d="M5.87821 27.1598C4.6949 28.3337 3.42159 28.5998 2.04328 27.9548C0.523311 27.2452 -0.148898 25.9635 0.0266543 24.1097C0.187762 23.9739 0.287761 24.0148 0.326649 24.2327C0.609977 25.6811 1.35996 26.7051 2.57661 27.3198C2.76494 27.4141 3.0466 27.4529 3.41159 27.4529C3.58937 27.4518 3.86158 27.4074 4.22824 27.3198C4.77048 27.2036 5.32401 27.15 5.87821 27.1598Z" fill="#04BAEA"/>
<path d="M22.7896 24.108C22.8729 25.1017 23.1929 26.0028 23.7562 26.8263C21.8818 28.1254 19.9191 29.2213 17.868 30.1139C17.1586 30.4267 16.4251 30.6802 15.6747 30.8718C15.5814 30.8802 15.5431 30.8432 15.5347 30.7573C15.5347 30.7405 15.5347 30.7101 15.5514 30.6899C15.5651 30.6747 15.5815 30.6621 15.5997 30.6529L19.3497 28.9771C19.3777 28.9659 19.4025 28.9479 19.422 28.9247C19.4414 28.9015 19.455 28.8738 19.4613 28.844C19.4665 28.8155 19.4649 28.7862 19.4568 28.7584C19.4487 28.7306 19.4343 28.7052 19.4147 28.684C19.2647 28.5122 19.0963 28.4752 18.8997 28.5594C18.8753 28.5677 18.849 28.5677 18.8247 28.5594C18.799 28.5549 18.7755 28.5419 18.758 28.5223C18.478 28.1434 18.103 28.0103 17.6347 28.1434C15.8714 28.6167 14.1664 28.6453 12.5515 28.2007C12.2234 28.106 11.8797 28.0802 11.5415 28.1249C10.8837 28.2192 10.5087 28.6453 10.4165 29.4032C8.92877 28.6893 7.50175 27.8528 6.1499 26.9021C6.74784 26.1525 7.10797 25.238 7.18322 24.2781L7.9882 25.0647C8.80263 25.8686 9.68706 26.5063 10.6415 26.9779C12.0374 27.72 13.5991 28.0856 15.1757 28.0393C16.7523 27.993 18.2905 27.5363 19.6413 26.7135C20.5386 26.2098 21.3593 25.5779 22.0779 24.8373C22.1996 24.5914 22.4429 24.3438 22.7896 24.108Z" fill="#E69A22"/>
<path d="M29.9995 24.4786C30.0261 25.7384 29.6506 26.695 28.8728 27.3485C27.324 28.6543 25.7429 28.6099 24.1296 27.2154C24.5029 27.1211 24.8623 27.1211 25.2079 27.2154C25.6679 27.3485 25.9662 27.4057 26.1262 27.4057C26.4929 27.4035 26.8679 27.3586 27.2512 27.271C28.1328 27.0824 29.0612 26.0499 29.3895 25.3392C29.5945 24.9131 29.7911 24.6201 29.9978 24.487L29.9995 24.4786Z" fill="#04BAEA"/>
<path d="M22.0763 24.839C21.3576 25.5796 20.5369 26.2115 19.6396 26.7152C18.2888 27.538 16.7507 27.9947 15.1741 28.041C13.5975 28.0873 12.0357 27.7217 10.6398 26.9796C9.66132 26.4919 8.76843 25.8456 7.99652 25.0664C9.21483 25.9674 10.1148 26.535 10.6865 26.791C12.2875 27.5415 14.0577 27.8467 15.8144 27.675C17.5711 27.5033 19.2506 26.8609 20.6796 25.8141L22.0763 24.839Z" fill="#FFF073"/>
<path d="M15.6747 30.8634C15.2797 31.0251 14.9614 31.0723 14.708 31.0251C13.2018 30.7157 11.753 30.169 10.4148 29.4049C10.5081 28.647 10.8831 28.2203 11.5398 28.1249C11.8587 28.08 12.1959 28.1058 12.5514 28.2024C14.1731 28.647 15.8714 28.6184 17.643 28.135C18.1097 28.012 18.4863 28.135 18.768 28.5224C18.768 28.5426 18.7946 28.5611 18.823 28.5712H18.898C19.0946 28.4769 19.273 28.5139 19.4146 28.6857C19.4433 28.718 19.4599 28.7595 19.4614 28.8029C19.463 28.8463 19.4493 28.8889 19.423 28.9232C19.406 28.9473 19.383 28.9665 19.3563 28.9788L15.608 30.6546C15.587 30.662 15.569 30.6763 15.5569 30.6952C15.5449 30.7141 15.5394 30.7366 15.5414 30.759C15.5414 30.855 15.5897 30.8819 15.6747 30.8634Z" fill="#D98D24"/>
</svg>
