<svg width="20" height="24" viewBox="0 0 20 24" fill="none" xmlns="http://www.w3.org/2000/svg">
<path d="M0.542664 18.3027L0.563997 18.2373C1.168 17.648 2.60133 16.368 3.54666 16.004C3.87466 15.808 12.096 16.688 16.1627 17.1533C16.992 17.6773 18.68 18.776 18.7747 18.9933C18.84 19.14 19.16 19.7213 19.4587 20.2533C18.1944 21.5865 16.6408 22.6115 14.9178 23.2493C13.1948 23.8872 11.3483 24.1209 9.52068 23.9325C7.69307 23.744 5.93314 23.1384 4.37656 22.1623C2.81997 21.1862 1.50831 19.8658 0.542664 18.3027Z" fill="#94191B"/>
<path fill-rule="evenodd" clip-rule="evenodd" d="M3.54 16.004C2.60133 16.368 1.168 17.648 0.563997 18.2373L0.542664 18.3107C1.50827 19.8741 2.82016 21.1947 4.37711 22.1706C5.93405 23.1466 7.69441 23.7518 9.52234 23.9395C11.3503 24.1273 13.1969 23.8925 14.9197 23.2534C16.6425 22.6142 18.1954 21.5878 19.4587 20.2533C19.2213 19.8389 18.9932 19.4193 18.7747 18.9947C18.68 18.776 16.992 17.6773 16.1547 17.1547C12.096 16.688 3.87466 15.808 3.54 16.004ZM16.0173 17.5613C13.4849 17.2717 10.9501 17.0024 8.41333 16.7533C6.94595 16.6135 5.47643 16.497 4.00533 16.404C3.89604 16.3995 3.78662 16.3995 3.67733 16.404C3.27066 16.564 2.732 16.9347 2.18666 17.364C1.764 17.7067 1.35733 18.0627 1.06666 18.34C2.00775 19.7809 3.25855 20.9936 4.72786 21.8897C6.19717 22.7858 7.84794 23.3427 9.55981 23.5197C11.2717 23.6968 13.0015 23.4896 14.6231 22.9132C16.2447 22.3368 17.7172 21.4058 18.9333 20.188C18.7431 19.8565 18.5591 19.5218 18.3813 19.184C18.0978 18.9555 17.8065 18.7367 17.508 18.528C17.0164 18.1973 16.5196 17.8751 16.0173 17.5613ZM18.4173 19.228C18.4253 19.228 18.4253 19.228 18.4173 19.228Z" fill="black"/>
<path d="M4.41333 14.4933L5.344 14.2533C4.74 10.8987 5.336 7.50133 5.70666 6.22133L6.72533 5.40667L15.856 4.832C16.38 5.08533 17.42 5.784 17.42 6.57867C17.42 7.37867 16.78 8.20667 16.46 8.52C16.6413 8.69333 17.0427 9.088 17.2387 9.17467C17.4787 9.29867 18.1987 10.332 17.6893 12.3747C17.18 14.4347 14.5107 15.46 14.2333 15.5773C14.016 15.6787 13.964 16.0493 13.964 16.2173L16.0387 17.4253C15.9625 17.8775 15.8201 18.316 15.616 18.7267C15.4267 19.0187 15.696 19.9133 15.856 20.3267L14.1093 18.996L4.68133 17.2147L4.41333 14.4933Z" fill="#67B312"/>
<path d="M15.8427 4.62001C15.8801 4.61651 15.9178 4.62441 15.9507 4.64268C16.324 4.82668 16.6707 5.06535 16.9773 5.34801C17.3187 5.66801 17.6307 6.09735 17.6307 6.58535C17.6307 7.03601 17.4493 7.47868 17.2387 7.83601C17.1064 8.0802 16.9452 8.30761 16.7587 8.51335C16.9453 8.68135 17.1396 8.84135 17.3413 8.99335C17.4711 9.07974 17.5803 9.19352 17.6613 9.32668C17.7707 9.49468 17.872 9.72001 17.952 9.99735C18.104 10.5707 18.156 11.3787 17.8933 12.4347C17.624 13.532 16.7733 14.3413 15.9947 14.8787C15.4697 15.2346 14.9089 15.5345 14.3213 15.7733C14.3 15.788 14.2493 15.832 14.22 15.9413L14.184 16.1013L16.148 17.2427C16.1849 17.2643 16.2139 17.2973 16.2307 17.3366C16.2475 17.376 16.2512 17.4197 16.2413 17.4613C16.1981 17.6916 16.1447 17.9198 16.0813 18.1453C16.0182 18.3909 15.9203 18.6261 15.7907 18.844C15.7692 18.907 15.7597 18.9735 15.7627 19.04C15.7627 19.1493 15.784 19.288 15.8133 19.4333C15.8707 19.7307 15.98 20.0507 16.0533 20.2467C16.07 20.2903 16.0718 20.3383 16.0585 20.3831C16.0453 20.4279 16.0177 20.4671 15.98 20.4947C15.944 20.5202 15.9009 20.5339 15.8567 20.5339C15.8125 20.5339 15.7694 20.5202 15.7333 20.4947L14.0307 19.1933L4.64535 17.4253C4.59982 17.4169 4.55829 17.3938 4.52702 17.3597C4.49575 17.3255 4.47644 17.2821 4.47201 17.236L4.20135 14.516C4.19824 14.4665 4.21252 14.4174 4.24173 14.3772C4.27094 14.337 4.31324 14.3083 4.36134 14.296L5.10401 14.1C4.55068 10.7613 5.13335 7.43601 5.50401 6.16268C5.51596 6.11959 5.54115 6.08134 5.57601 6.05335L6.59468 5.24001C6.62962 5.21576 6.66985 5.20022 6.71201 5.19468L15.8427 4.62001ZM14.176 16.588V17.2213C14.176 17.3373 14.0827 17.44 13.9653 17.44C13.9371 17.4397 13.9092 17.4337 13.8833 17.4225C13.8574 17.4113 13.8339 17.395 13.8143 17.3747C13.7947 17.3544 13.7793 17.3303 13.7691 17.304C13.7589 17.2777 13.754 17.2496 13.7547 17.2213V16.224C13.755 16.0853 13.7794 15.9477 13.8267 15.8173C13.8459 15.7267 13.8854 15.6416 13.9422 15.5684C13.999 15.4952 14.0716 15.4358 14.1547 15.3947L14.22 15.3667C14.76 15.1491 15.2746 14.8733 15.7547 14.544C16.504 14.02 17.2533 13.2933 17.4867 12.34C17.7333 11.3427 17.6827 10.608 17.544 10.12C17.4907 9.92446 17.4107 9.74046 17.304 9.56801C17.2593 9.49807 17.2055 9.4344 17.144 9.37868C16.9875 9.28244 16.8414 9.17029 16.708 9.04401L16.308 8.68001C16.2678 8.63911 16.2452 8.58405 16.2452 8.52668C16.2452 8.46931 16.2678 8.41424 16.308 8.37334C16.46 8.22934 16.6867 7.96001 16.8813 7.63201C17.072 7.30535 17.2093 6.93334 17.2093 6.59201C17.2093 6.27868 17.0067 5.95868 16.6933 5.66801C16.4308 5.42642 16.1371 5.22104 15.82 5.05735L6.79868 5.61734L5.88934 6.35201C5.52534 7.66135 4.96535 10.9653 5.54801 14.224C5.5557 14.2749 5.54521 14.3268 5.51839 14.3707C5.49156 14.4146 5.45012 14.4477 5.40134 14.464L4.63868 14.66L4.87868 17.04L14.1547 18.7933C14.1902 18.8005 14.2191 18.8147 14.2413 18.836L15.456 19.76C15.399 19.526 15.3602 19.288 15.34 19.048C15.34 18.9013 15.3613 18.7413 15.4413 18.6107C15.5147 18.5013 15.6013 18.2773 15.6747 18.0293L15.8053 17.5413L14.176 16.5947V16.588Z" fill="black"/>
<path d="M4.17334 14.0427C4.60934 13.9253 5.15467 14.2747 5.37334 14.464C4.35467 13.736 4.62267 16.1307 5.16134 16.8213C6.28934 17.768 11.5213 18.4213 13.9933 18.64C14.3933 19.1493 15.1933 20.24 15.1933 20.532C10.2973 21.2587 9.94134 20.1173 8.224 19.6C6.51467 19.0907 3.96134 17.636 3.83734 17.2133C3.72134 16.792 3.63467 14.1947 4.17334 14.0427Z" fill="#94191B"/>
<path d="M4.93603 13.9467C5.17603 14.048 5.38669 14.2 5.50936 14.3107C5.59736 14.3827 5.60536 14.5067 5.54003 14.6013C5.50528 14.6437 5.45558 14.671 5.40122 14.6777C5.34687 14.6844 5.29201 14.67 5.24803 14.6373C5.14003 14.5653 5.07469 14.544 5.04536 14.544C5.02269 14.544 5.00803 14.544 4.99336 14.5653C4.95539 14.6222 4.93077 14.6869 4.92136 14.7547C4.89935 14.872 4.88952 14.9913 4.89203 15.1107C4.89203 15.3867 4.94269 15.7067 5.02269 15.9973C5.10269 16.288 5.21203 16.5293 5.31469 16.6747C5.56136 16.8707 6.05603 17.0747 6.72536 17.2707C7.51291 17.48 8.30922 17.6548 9.11203 17.7947C10.8587 18.1013 12.7787 18.3187 14.016 18.4213C14.0734 18.4213 14.124 18.4573 14.1614 18.5013C14.5525 19.0116 14.916 19.54 15.252 20.0867L15.3614 20.3133C15.386 20.3834 15.4009 20.4565 15.4054 20.5307C15.4061 20.5817 15.3891 20.6315 15.3573 20.6714C15.3254 20.7112 15.2807 20.7388 15.2307 20.7493C12.764 21.112 11.4174 21.0027 10.4574 20.7347C10.0438 20.611 9.64216 20.4503 9.25736 20.2547L9.22136 20.24C8.88408 20.061 8.53047 19.9145 8.16536 19.8027C6.76483 19.3458 5.43541 18.6946 4.21603 17.868C4.0376 17.7383 3.87196 17.5919 3.72136 17.4307C3.68587 17.3822 3.65883 17.3281 3.64136 17.2707C3.59162 17.0413 3.56217 16.8079 3.55336 16.5733C3.53592 16.2215 3.53592 15.8691 3.55336 15.5173C3.55507 15.1724 3.59396 14.8286 3.66936 14.492C3.70669 14.3453 3.74936 14.208 3.81603 14.0987C3.84551 14.0374 3.88703 13.9827 3.93811 13.9378C3.9892 13.8929 4.0488 13.8587 4.11336 13.8373C4.40536 13.764 4.69603 13.8373 4.93603 13.9467ZM4.22936 14.244C4.22936 14.244 4.20803 14.2587 4.17869 14.3107C4.12988 14.3988 4.09566 14.4943 4.07736 14.5933C4.01869 14.8413 3.98403 15.176 3.96803 15.54C3.95203 16.0804 3.97647 16.6187 4.04136 17.1547L4.05469 17.176L4.13469 17.264C4.20936 17.3387 4.31603 17.4236 4.45469 17.5187C5.63736 18.3187 6.92536 18.9507 8.28136 19.396C8.71869 19.5267 9.06136 19.6867 9.39603 19.8533L9.43869 19.876C9.78803 20.0427 10.1374 20.2027 10.5747 20.3267C11.4187 20.5667 12.648 20.676 14.9174 20.3627C14.5983 19.8371 14.2534 19.3276 13.884 18.836C12.2614 18.6902 10.645 18.4811 9.03869 18.2093C8.22017 18.0723 7.4093 17.893 6.60936 17.672C6.02971 17.5372 5.48119 17.2928 4.99336 16.952C4.81721 16.6993 4.69136 16.415 4.62269 16.1147C4.52879 15.7882 4.4799 15.4504 4.47736 15.1107C4.47069 14.9573 4.47736 14.804 4.50669 14.6667C4.52691 14.5301 4.5846 14.4018 4.67336 14.296C4.53418 14.2353 4.38 14.2176 4.23069 14.2453" fill="black"/>
<path d="M14 15.7373V16.6387C14.5107 16.428 15.4707 17.4253 15.6453 17.7587C15.6453 18.5453 16.1253 19.7813 16.2773 19.9347C16.424 20.0813 16.6413 18.9387 16.6413 17.876C16.4013 17.148 14.7787 16.144 13.9933 15.7373H14Z" fill="#94191B"/>
<path d="M13.884 15.5547C13.9157 15.5352 13.9519 15.5243 13.9891 15.5231C14.0263 15.5219 14.0631 15.5305 14.096 15.548C14.488 15.7587 15.1 16.1147 15.6453 16.5213C15.9147 16.7187 16.176 16.9373 16.3867 17.148C16.5907 17.3587 16.7653 17.584 16.8387 17.8107C16.8458 18.3422 16.8067 18.8707 16.7213 19.396C16.6853 19.6 16.6493 19.7827 16.5907 19.9053C16.5667 19.9725 16.5295 20.0341 16.4813 20.0867C16.4584 20.1096 16.4312 20.1279 16.4012 20.1403C16.3712 20.1528 16.3391 20.1592 16.3067 20.1592C16.2742 20.1592 16.2421 20.1528 16.2121 20.1403C16.1821 20.1279 16.1549 20.1096 16.132 20.0867C16.0879 20.0389 16.0511 19.985 16.0227 19.9267C15.7067 19.2631 15.5099 18.5491 15.4413 17.8173C15.1552 17.4273 14.7875 17.1043 14.364 16.8707C14.2187 16.8133 14.124 16.8133 14.0733 16.8347C14.0413 16.8476 14.0066 16.8525 13.9722 16.849C13.9378 16.8455 13.9048 16.8337 13.876 16.8147C13.8473 16.7951 13.8238 16.7689 13.8075 16.7382C13.7913 16.7076 13.7827 16.6734 13.7827 16.6387V15.736C13.7827 15.664 13.8267 15.5907 13.884 15.5547ZM14.204 16.0933V16.3987C14.3142 16.4129 14.4209 16.4418 14.524 16.4853C15.0547 16.756 15.5067 17.16 15.8347 17.6573C15.8547 18.1227 15.948 18.5813 16.1107 19.0173C16.1631 19.1924 16.2191 19.3453 16.2787 19.476L16.3067 19.3227C16.38 18.9453 16.424 18.4213 16.4307 17.912C16.3466 17.7346 16.2278 17.5759 16.0813 17.4453C15.8685 17.2344 15.6398 17.04 15.3973 16.864C15.0155 16.5838 14.6175 16.3265 14.2053 16.0933" fill="black"/>
<path d="M15.7254 18.4867C15.7786 18.5022 15.8242 18.5367 15.8537 18.5836C15.8832 18.6305 15.8944 18.6866 15.8854 18.7413C15.776 19.2213 15.908 19.7893 16.112 20.3707L16.184 20.568C16.4307 20.9453 16.62 21.3973 16.7307 21.9493C16.7388 22.0014 16.727 22.0546 16.6976 22.0984C16.6682 22.1421 16.6233 22.1732 16.572 22.1853C16.5214 22.1974 16.468 22.1904 16.4221 22.1659C16.3762 22.1413 16.3408 22.1008 16.3227 22.052C16.2458 21.8165 16.1559 21.5855 16.0534 21.36L16.0307 21.3093L15.8134 20.7627C15.4955 20.2684 15.0366 19.881 14.496 19.6507C14.4536 19.6244 14.4218 19.5842 14.4059 19.537C14.3901 19.4897 14.3913 19.4384 14.4094 19.392C14.4256 19.3451 14.4576 19.3054 14.5 19.2796C14.5423 19.2538 14.5923 19.2436 14.6414 19.2507C14.956 19.376 15.2467 19.5573 15.5 19.7813C15.4089 19.4096 15.3989 19.0226 15.4707 18.6467C15.4834 18.5918 15.5173 18.5441 15.565 18.5141C15.6128 18.4842 15.6704 18.4743 15.7254 18.4867Z" fill="black"/>
<path d="M5.48932 3.89333C5.37199 4.62 5.53999 5.74666 5.64132 6.22C6.41332 5.20133 11.2507 3.42 13.572 2.656C13.324 1.928 12.772 0.399996 12.5533 0.210663C9.78799 0.574663 5.64132 2.99066 5.49599 3.892L5.48932 3.89333Z" fill="#94181A"/>
<path d="M12.524 0C12.5907 0 12.648 0.0133335 12.692 0.0506668C12.748 0.103197 12.7944 0.164993 12.8293 0.233333L12.9613 0.48L13.252 1.14933C13.448 1.65867 13.644 2.21867 13.776 2.58933C13.7921 2.64344 13.7867 2.7017 13.7609 2.7519C13.735 2.8021 13.6908 2.84036 13.6373 2.85867C12.1067 3.36533 10.5956 3.92533 9.104 4.53867C8.312 4.87467 7.57067 5.216 6.98 5.52933C6.68933 5.68933 6.428 5.84267 6.23067 5.98C6.02889 6.12756 5.88845 6.24889 5.80934 6.344C5.78543 6.37521 5.75327 6.39911 5.71649 6.41299C5.6797 6.42688 5.63977 6.43019 5.60121 6.42256C5.56264 6.41493 5.52698 6.39666 5.49825 6.36982C5.46953 6.34297 5.44889 6.30863 5.43867 6.27067C5.36363 5.90838 5.3102 5.54196 5.27867 5.17333C5.22699 4.73783 5.22923 4.29762 5.28533 3.86267C5.31467 3.68933 5.432 3.51333 5.56933 3.35333C5.71467 3.18667 5.91067 3.00533 6.14267 2.82267C6.60267 2.45867 7.236 2.052 7.94134 1.65867C9.36464 0.851768 10.914 0.290997 12.524 0ZM5.88133 3.63733C5.75867 3.784 5.708 3.87733 5.7 3.928C5.652 4.33067 5.652 4.73333 5.7 5.136C5.71333 5.36933 5.75067 5.59467 5.77333 5.79067L5.99067 5.63067C6.20933 5.48533 6.47867 5.31867 6.784 5.15867C7.48855 4.78928 8.20927 4.45161 8.944 4.14667C10.3798 3.5551 11.8358 3.01388 13.3093 2.524C13.0871 1.89644 12.8449 1.276 12.5827 0.662667L12.4667 0.444C10.9496 0.739685 9.49004 1.27768 8.144 2.03733C7.53357 2.36473 6.94958 2.7392 6.39734 3.15733C6.2146 3.30009 6.04463 3.45846 5.88933 3.63067L5.88133 3.63733Z" fill="black"/>
<path d="M13.572 2.65601C14.6987 2.62668 17.064 2.83068 17.572 3.89334C17.572 4.38001 16.22 5.16668 12.1027 5.25334C8.44265 5.33334 6.73332 5.56001 5.95465 5.90801C7.35865 5.16668 11.724 3.10801 13.572 2.65601Z" fill="#94181A"/>
<path fill-rule="evenodd" clip-rule="evenodd" d="M13.6013 2.86666C12.6986 3.09199 11.1706 3.70932 9.67998 4.36532C8.95998 4.68532 8.26132 5.01199 7.64265 5.30266L7.92665 5.26665C9.31227 5.135 10.7029 5.06205 12.0946 5.04799C13.5187 5.05969 14.9379 4.88122 16.3146 4.51732C16.6198 4.43552 16.9098 4.30495 17.1733 4.13066C17.2507 4.08008 17.3137 4.01024 17.356 3.92799C17.2179 3.71546 17.0242 3.54483 16.796 3.43466C16.4677 3.27018 16.1201 3.14745 15.7613 3.06932C15.0511 2.92149 14.3266 2.85351 13.6013 2.86666ZM6.04931 6.09599C6.66728 5.87179 7.31352 5.73491 7.96932 5.68932C8.94532 5.57999 10.284 5.50666 12.1093 5.47066C14.176 5.41999 15.5653 5.20132 16.4453 4.92399C16.8826 4.77999 17.2026 4.63332 17.4213 4.46665C17.632 4.31332 17.784 4.11732 17.784 3.89199C17.7819 3.86165 17.7747 3.83189 17.7626 3.80399C17.6106 3.48399 17.3266 3.24399 16.992 3.06265C16.632 2.87569 16.2473 2.741 15.8493 2.66266C15.0845 2.49999 14.303 2.42882 13.5213 2.45065C12.5746 2.68399 11.0106 3.31732 9.51198 3.97866C8.18309 4.56532 6.87376 5.19377 5.58398 5.86399C5.53947 5.89621 5.50872 5.944 5.49785 5.99786C5.48698 6.05172 5.49679 6.1077 5.52532 6.15466C5.58398 6.24799 5.70798 6.27866 5.80932 6.22666L6.04931 6.09599Z" fill="black"/>
<path d="M13.8267 7.05734C12.4293 5.61734 10.6613 6.20534 9.78801 6.56934C9.76989 6.57696 9.75045 6.58093 9.73079 6.58103C9.71113 6.58113 9.69165 6.57736 9.67345 6.56993C9.65525 6.5625 9.63869 6.55156 9.62471 6.53774C9.61074 6.52391 9.59963 6.50746 9.59202 6.48934C9.5844 6.47122 9.58043 6.45177 9.58032 6.43212C9.58022 6.41246 9.58399 6.39297 9.59142 6.37477C9.59885 6.35657 9.60979 6.34001 9.62362 6.32604C9.63745 6.31207 9.65389 6.30096 9.67201 6.29334C10.5453 5.92934 12.4947 5.25334 14.0373 6.84001C14.0525 6.85376 14.0646 6.87053 14.0729 6.88924C14.0812 6.90796 14.0855 6.9282 14.0855 6.94867C14.0855 6.96915 14.0812 6.98939 14.0729 7.0081C14.0646 7.02682 14.0525 7.04359 14.0373 7.05734C14.0168 7.07868 13.9902 7.09329 13.9612 7.09924C13.9321 7.10519 13.902 7.10221 13.8747 7.09067C13.8559 7.08342 13.8404 7.07203 13.8267 7.05734Z" fill="black"/>
<path d="M11.0187 6.87466C10.7231 7.00913 10.4428 7.17497 10.1827 7.36933C10.1676 7.38279 10.1498 7.39266 10.1304 7.3982C10.111 7.40375 10.0906 7.40481 10.0707 7.40133C10.0506 7.39955 10.0311 7.39323 10.0138 7.38284C9.99645 7.37244 9.98171 7.35825 9.97068 7.34133C9.95616 7.3261 9.94545 7.30765 9.93942 7.28749C9.9334 7.26733 9.93223 7.24602 9.93601 7.22533C9.93876 7.20465 9.9459 7.18479 9.95693 7.16709C9.96797 7.14938 9.98266 7.13424 10 7.12266C10.1813 6.98399 10.5093 6.77333 10.9027 6.59866C11.3894 6.36004 11.9291 6.25008 12.4704 6.27926C13.0117 6.30843 13.5364 6.47578 13.9947 6.76533C14.011 6.77701 14.0247 6.79191 14.035 6.8091C14.0453 6.82629 14.0519 6.8454 14.0546 6.86527C14.0572 6.88513 14.0557 6.90532 14.0502 6.9246C14.0447 6.94387 14.0354 6.96182 14.0227 6.97733C14.0053 7.00008 13.9817 7.01725 13.9547 7.02673C13.9276 7.03621 13.8985 7.03757 13.8707 7.03066C13.8523 7.02634 13.835 7.01816 13.82 7.00666C13.4033 6.75015 12.9284 6.60349 12.4397 6.58041C11.9509 6.55733 11.4643 6.65856 11.0253 6.87466H11.0187ZM14.3147 7.93066C14.3867 7.97333 14.408 8.06799 14.3653 8.14133C14.1417 8.51627 13.8241 8.82631 13.4438 9.04076C13.0636 9.25521 12.6339 9.36663 12.1973 9.36399C11.6908 9.35262 11.1884 9.26912 10.7053 9.11599C10.6764 9.10685 10.6509 9.08926 10.632 9.06547C10.6131 9.04169 10.6018 9.0128 10.5995 8.98254C10.5973 8.95227 10.6041 8.92201 10.6191 8.89566C10.6342 8.8693 10.6568 8.84806 10.684 8.83466C10.7201 8.8171 10.7615 8.81377 10.8 8.82533C11.0333 8.89733 11.6373 9.05733 12.1893 9.05733C12.8733 9.05733 13.66 8.74533 14.1107 7.98799C14.12 7.97052 14.1327 7.95511 14.1482 7.9427C14.1636 7.93028 14.1814 7.92112 14.2004 7.91576C14.2195 7.91041 14.2394 7.90896 14.2591 7.91152C14.2787 7.91408 14.2976 7.92059 14.3147 7.93066Z" fill="black"/>
<path d="M13.244 6.64267C12.4733 6.64267 11.084 7.73334 10.48 8.272C10.5733 8.42534 11.1133 8.66534 11.7746 8.66534C13.9653 8.66534 14.2626 8.12667 14.2626 7.61067C14.2626 7.10134 13.7533 6.64267 13.244 6.64267Z" fill="white"/>
<path d="M10.712 8.27201C11.0446 8.42813 11.4072 8.51002 11.7747 8.51201C12.8653 8.51201 13.448 8.38001 13.768 8.19867C13.8884 8.13757 13.9875 8.04132 14.052 7.92268C14.0984 7.82497 14.1204 7.71743 14.116 7.60934C14.112 7.50148 14.0861 7.39556 14.0401 7.29794C13.994 7.20033 13.9287 7.11304 13.848 7.04134C13.6842 6.88702 13.469 6.7991 13.244 6.79467C13.084 6.79556 12.88 6.85112 12.632 6.96134C12.392 7.06401 12.1387 7.21601 11.8827 7.38401C11.4725 7.65275 11.0813 7.94945 10.712 8.27201ZM12.5093 6.68534C12.7627 6.56934 13.0187 6.48934 13.2427 6.48934C13.5426 6.49395 13.8293 6.61323 14.044 6.82267C14.2627 7.02001 14.4147 7.30267 14.4147 7.60934C14.4167 7.76457 14.3849 7.91837 14.3213 8.06001C14.2278 8.23066 14.0858 8.36983 13.9133 8.46001C13.5267 8.67868 12.8733 8.82401 11.7747 8.82401C11.3503 8.82102 10.9323 8.72162 10.552 8.53334C10.4694 8.49161 10.3991 8.42912 10.348 8.35201C10.3294 8.32217 10.3221 8.28664 10.3275 8.25189C10.3329 8.21714 10.3506 8.18547 10.3773 8.16267C10.7987 7.78718 11.246 7.44188 11.716 7.12934C11.9773 6.95467 12.2547 6.80134 12.516 6.68534H12.5093ZM16.692 5.61601C16.4387 5.25201 15.9933 5.07734 15.3027 5.13601C15.04 5.15734 14.684 5.28134 14.3347 5.44134C14.0349 5.57275 13.7452 5.72605 13.468 5.90001C13.4514 5.91013 13.433 5.91685 13.4137 5.91978C13.3945 5.92271 13.3749 5.92179 13.3561 5.91708C13.3372 5.91236 13.3195 5.90395 13.3039 5.89232C13.2883 5.88069 13.2752 5.86608 13.2653 5.84934C13.2537 5.83242 13.2457 5.81323 13.2419 5.79302C13.2382 5.77282 13.2387 5.75205 13.2435 5.73206C13.2483 5.71208 13.2572 5.69331 13.2697 5.677C13.2822 5.66068 13.2979 5.64717 13.316 5.63734C13.5133 5.51467 13.848 5.32534 14.212 5.16534C14.5453 4.99867 14.9053 4.88534 15.2733 4.83067C16.0227 4.77201 16.5973 4.95334 16.9467 5.44134C16.9645 5.46623 16.974 5.49607 16.974 5.52667C16.974 5.55728 16.9645 5.58712 16.9467 5.61201C16.9352 5.62848 16.9202 5.64216 16.9027 5.65201C16.8873 5.66369 16.8695 5.67189 16.8506 5.67604C16.8318 5.68018 16.8122 5.68017 16.7933 5.67601C16.7744 5.67329 16.7562 5.66653 16.7401 5.65618C16.724 5.64582 16.7103 5.63212 16.7 5.61601H16.692Z" fill="black"/>
<path d="M15.9147 5.01335C15.9196 5.03243 15.9203 5.05238 15.9166 5.07174C15.9129 5.09111 15.905 5.10942 15.8933 5.12535C15.883 5.14228 15.869 5.15669 15.8524 5.16753C15.8358 5.17837 15.817 5.18537 15.7973 5.18801C14.9447 5.4331 14.1817 5.92091 13.6013 6.59201C13.5887 6.60861 13.5726 6.62232 13.5542 6.6322C13.5358 6.64209 13.5155 6.64794 13.4947 6.64935C13.4741 6.65052 13.4534 6.64733 13.4341 6.63998C13.4148 6.63263 13.3973 6.62128 13.3827 6.60668C13.3598 6.58774 13.3432 6.5623 13.3351 6.53373C13.327 6.50516 13.3278 6.47481 13.3373 6.44668C13.3436 6.42771 13.3541 6.41039 13.368 6.39602C13.9928 5.67634 14.8146 5.15535 15.732 4.89735C15.7517 4.89204 15.7722 4.89088 15.7923 4.89394C15.8124 4.897 15.8317 4.90422 15.8489 4.91513C15.8661 4.92604 15.8808 4.94041 15.8921 4.95732C15.9034 4.97423 15.9111 4.99331 15.9147 5.01335ZM16.744 7.96002C16.816 7.99602 16.8373 8.09068 16.8027 8.16402C16.576 8.60002 16.1253 8.87735 15.6827 9.03735C15.2981 9.18585 14.8929 9.274 14.4813 9.29868C14.4618 9.30048 14.4421 9.29794 14.4237 9.29126C14.4053 9.28458 14.3885 9.27391 14.3747 9.26001C14.3594 9.24761 14.347 9.23197 14.3385 9.21422C14.33 9.19646 14.3255 9.17704 14.3253 9.15735C14.3233 9.1376 14.3258 9.11766 14.3325 9.09898C14.3392 9.08029 14.3499 9.06334 14.364 9.04935C14.3764 9.03405 14.3921 9.0217 14.4098 9.01317C14.4276 9.00464 14.447 9.00015 14.4667 9.00002C14.736 8.98668 15.1653 8.92001 15.58 8.76001C15.9765 8.63649 16.3166 8.37673 16.54 8.02668C16.5485 8.00842 16.5606 7.99209 16.5757 7.97872C16.5907 7.96535 16.6084 7.95523 16.6275 7.94897C16.6466 7.94272 16.6669 7.94047 16.6869 7.94237C16.707 7.94427 16.7264 7.95028 16.744 7.96002Z" fill="black"/>
<path d="M17.0786 7.64001C17.0878 7.65735 17.093 7.67649 17.094 7.69608C17.0949 7.71567 17.0915 7.73522 17.084 7.75334C17.0778 7.77209 17.0675 7.78922 17.0539 7.80352C17.0403 7.81781 17.0237 7.82891 17.0053 7.83601C16.4813 8.09068 15.9067 8.16401 15.4053 8.15601C14.9937 8.14835 14.5851 8.08465 14.1906 7.96668C14.1612 7.95837 14.135 7.94105 14.1159 7.91713C14.0968 7.89322 14.0856 7.86392 14.084 7.83334C14.0821 7.80828 14.0864 7.78313 14.0966 7.76013C14.1067 7.73712 14.1223 7.71696 14.1421 7.70142C14.1618 7.68588 14.1851 7.67543 14.2099 7.671C14.2346 7.66657 14.2601 7.66829 14.284 7.67601C14.5106 7.74934 14.932 7.84401 15.4053 7.85068C15.8853 7.86534 16.4093 7.79201 16.8746 7.56001C16.9017 7.54563 16.9326 7.54008 16.963 7.54414C16.9933 7.54821 17.0217 7.56168 17.044 7.58268C17.0591 7.59601 17.0706 7.61246 17.0786 7.63201V7.64001Z" fill="black"/>
<path d="M16.372 5.34668C15.4264 5.60775 14.5979 6.18283 14.0226 6.97735C14.8226 7.67468 16.3573 7.47068 17.0266 7.27468C17.144 7.21735 17.3613 6.97735 17.3613 6.48801C17.3613 5.88535 16.7 5.43468 16.372 5.34668Z" fill="white"/>
<path d="M16.336 5.19468C16.3596 5.18808 16.3845 5.18808 16.408 5.19468C16.6053 5.25201 16.8747 5.40535 17.092 5.61601C17.3107 5.83468 17.5067 6.13201 17.5067 6.48935C17.5067 7.02001 17.2667 7.31868 17.1 7.41335C16.6129 7.72694 16.0338 7.86604 15.4574 7.80791C14.881 7.74979 14.3414 7.49788 13.9267 7.09335C13.8972 7.06888 13.8784 7.03383 13.8744 6.9957C13.8704 6.95757 13.8815 6.91939 13.9053 6.88935C14.1587 6.54304 14.4574 6.23227 14.7933 5.96535C15.216 5.63735 15.74 5.32535 16.336 5.19468ZM14.2333 6.94668C14.5827 7.20001 15.0773 7.29468 15.58 7.30935C16.0487 7.31287 16.5159 7.25459 16.9693 7.13601C17.0413 7.09201 17.2093 6.90268 17.2093 6.48801C17.2093 6.24801 17.0773 6.01468 16.8813 5.83335C16.7349 5.68658 16.5591 5.57251 16.3653 5.49868C15.8413 5.62135 15.368 5.89868 14.9827 6.20401C14.709 6.42619 14.458 6.67497 14.2333 6.94668ZM12.5453 9.47068C11.9853 9.68935 11.2933 9.66668 10.3267 9.28135C10.308 9.27406 10.288 9.27056 10.2679 9.27105C10.2478 9.27153 10.228 9.276 10.2097 9.28418C10.1913 9.29236 10.1748 9.3041 10.161 9.31872C10.1472 9.33334 10.1364 9.35055 10.1293 9.36935C10.115 9.40701 10.1163 9.44881 10.1328 9.48556C10.1493 9.52231 10.1797 9.55101 10.2173 9.56535C11.228 9.95735 11.992 10.0093 12.6547 9.75468C13.308 9.50001 13.8253 8.95468 14.3573 8.24135C14.3706 8.2262 14.3802 8.20826 14.3855 8.18886C14.3908 8.16946 14.3917 8.14912 14.388 8.12935C14.386 8.10946 14.3796 8.09026 14.3692 8.07318C14.3589 8.0561 14.3448 8.04158 14.328 8.03068C14.3124 8.01687 14.294 8.00656 14.274 8.00044C14.2541 7.99432 14.233 7.99252 14.2123 7.99517C14.1916 7.99782 14.1717 8.00486 14.154 8.01581C14.1362 8.02676 14.121 8.04138 14.1093 8.05868C13.5933 8.76535 13.12 9.25201 12.5453 9.47068Z" fill="black"/>
<path fill-rule="evenodd" clip-rule="evenodd" d="M12.88 8.60665C13.3334 8.60665 13.696 8.29332 13.696 7.91599C13.696 7.52932 13.332 7.21732 12.8814 7.21732C12.4374 7.21732 12.0734 7.52932 12.0734 7.91599C12.0734 8.29332 12.4374 8.60665 12.8814 8.60665M12.5547 8.24265C12.5789 8.24399 12.6032 8.24022 12.6258 8.2316C12.6485 8.22298 12.6691 8.20969 12.6863 8.1926C12.7036 8.1755 12.717 8.15499 12.7258 8.13237C12.7346 8.10976 12.7385 8.08555 12.7374 8.06132C12.7374 8.01305 12.7182 7.96676 12.6841 7.93263C12.6499 7.8985 12.6036 7.87932 12.5554 7.87932C12.5071 7.87932 12.4608 7.8985 12.4267 7.93263C12.3925 7.96676 12.3734 8.01305 12.3734 8.06132C12.3734 8.16265 12.4534 8.24265 12.5547 8.24265ZM12.8534 7.76265C12.8534 7.82932 12.8027 7.87865 12.7374 7.87865C12.7058 7.87872 12.6754 7.86676 12.6524 7.84521C12.6294 7.82366 12.6154 7.79413 12.6134 7.76265C12.6094 7.74428 12.6094 7.72528 12.6133 7.7069C12.6172 7.68851 12.6249 7.67116 12.636 7.65599C12.6481 7.64185 12.663 7.6304 12.6798 7.62236C12.6965 7.61433 12.7148 7.60988 12.7334 7.60932C12.7522 7.60913 12.7708 7.61328 12.7878 7.62144C12.8047 7.6296 12.8196 7.64156 12.8312 7.65638C12.8428 7.67121 12.8508 7.6885 12.8547 7.70693C12.8585 7.72536 12.8581 7.74443 12.8534 7.76265ZM12.9187 8.18532C12.9854 8.18532 13.0347 8.12665 13.0347 8.06132C13.0386 8.04295 13.0387 8.02395 13.0348 8.00556C13.0309 7.98718 13.0231 7.96983 13.012 7.95465C13.0006 7.93972 12.9858 7.92762 12.969 7.9193C12.9521 7.91097 12.9335 7.90664 12.9147 7.90664C12.8959 7.90664 12.8773 7.91097 12.8604 7.9193C12.8436 7.92762 12.8288 7.93972 12.8174 7.95465C12.8063 7.96983 12.7985 7.98718 12.7946 8.00556C12.7907 8.02395 12.7907 8.04295 12.7947 8.06132C12.7941 8.07775 12.797 8.09413 12.803 8.10942C12.809 8.12472 12.8181 8.13861 12.8298 8.15024C12.8414 8.16187 12.8553 8.17098 12.8706 8.17702C12.8859 8.18305 12.9023 8.18588 12.9187 8.18532ZM16.0694 7.34132C16.52 7.34132 16.8827 7.02799 16.8827 6.64265C16.8827 6.25732 16.52 5.95065 16.0694 5.95065C15.6254 5.95065 15.2614 6.25732 15.2614 6.64265C15.2614 7.02799 15.6254 7.34132 16.0694 7.34132ZM15.7414 6.97732C15.7895 6.9763 15.8354 6.95673 15.8694 6.92269C15.9034 6.88865 15.923 6.84278 15.924 6.79465C15.9238 6.7589 15.9129 6.72403 15.8929 6.69442C15.8729 6.6648 15.8446 6.64177 15.8115 6.62821C15.7784 6.61465 15.742 6.61117 15.707 6.61821C15.6719 6.62525 15.6398 6.64249 15.6145 6.66777C15.5892 6.69305 15.572 6.72524 15.5649 6.76029C15.5579 6.79534 15.5614 6.83169 15.5749 6.86477C15.5885 6.89785 15.6115 6.92618 15.6411 6.9462C15.6707 6.96623 15.7056 6.97706 15.7414 6.97732ZM16.1054 6.43065C16.1059 6.44709 16.1031 6.46346 16.0971 6.47876C16.091 6.49405 16.0819 6.50795 16.0703 6.51958C16.0587 6.5312 16.0448 6.54032 16.0295 6.54635C16.0142 6.55238 15.9978 6.55521 15.9814 6.55465C15.9548 6.54774 15.9313 6.53221 15.9145 6.51049C15.8977 6.48877 15.8886 6.4621 15.8886 6.43465C15.8886 6.40721 15.8977 6.38053 15.9145 6.35882C15.9313 6.3371 15.9548 6.32157 15.9814 6.31465C16.048 6.31465 16.0987 6.36532 16.0987 6.43199L16.1054 6.43065ZM16.164 6.85332C16.191 6.84717 16.2151 6.83186 16.2321 6.80998C16.2491 6.78811 16.2581 6.76102 16.2574 6.73332C16.2581 6.70562 16.2491 6.67853 16.2321 6.65666C16.2151 6.63478 16.191 6.61947 16.164 6.61332C16.1476 6.61276 16.1312 6.61559 16.1159 6.62162C16.1006 6.62766 16.0867 6.63677 16.0751 6.6484C16.0635 6.66003 16.0544 6.67392 16.0483 6.68922C16.0423 6.70451 16.0395 6.72089 16.04 6.73732C16.04 6.80265 16.0907 6.85332 16.164 6.85332Z" fill="black"/>
<path d="M17.2387 9.45732C18.4174 9.45732 18.6507 9.87199 18.6214 10.084C18.6214 10.3747 18.3814 10.5707 18.2574 10.6293C18.424 10.7307 18.744 11.008 18.744 11.328C18.744 12.564 16.1907 12.1133 14.78 12.1133C13.368 12.1133 11.4107 13.3213 10.996 13.3213C10.5747 13.3213 9.94269 13.1027 9.94269 12.4987C9.94269 10.6293 15.7694 9.45065 17.2387 9.45065V9.45732Z" fill="#A24A43"/>
<path d="M12.976 10.076C14.3562 9.61968 15.7883 9.33881 17.2387 9.23999C17.8493 9.23999 18.2493 9.34932 18.4973 9.51599C18.744 9.67599 18.8613 9.90266 18.8307 10.0973C18.8275 10.2969 18.7472 10.4875 18.6067 10.6293L18.7227 10.76C18.8387 10.9067 18.956 11.0947 18.956 11.328C18.9596 11.5043 18.9102 11.6776 18.8142 11.8255C18.7181 11.9734 18.5799 12.089 18.4173 12.1573C18.1107 12.3093 17.7107 12.3747 17.2973 12.3893C16.7732 12.4109 16.2483 12.4016 15.7253 12.3613C15.4102 12.3395 15.0945 12.3271 14.7787 12.324C14.1173 12.324 13.3107 12.608 12.5973 12.9067L12.0147 13.16L11.644 13.32L11.28 13.4667C11.1881 13.5069 11.0895 13.5295 10.9893 13.5333C10.7493 13.5333 10.4507 13.4733 10.196 13.3133C10.0524 13.232 9.93337 13.1137 9.85127 12.9706C9.76917 12.8275 9.72705 12.6649 9.72934 12.5C9.72934 11.9173 10.1827 11.4373 10.756 11.0587C11.4501 10.6358 12.1964 10.3055 12.976 10.076ZM10.9893 11.4147C10.4293 11.7787 10.152 12.1493 10.152 12.5067C10.152 12.7173 10.2547 12.8547 10.4147 12.9573C10.588 13.0587 10.8067 13.1027 10.996 13.1027C11.1614 13.0528 11.3242 12.995 11.484 12.9293L11.8253 12.7827L12.4293 12.5213C13.1667 12.1671 13.9641 11.9545 14.78 11.8947C15.0707 11.8947 15.4053 11.9173 15.7533 11.9387L16.0013 11.9533C16.4387 11.9747 16.8813 11.9893 17.2813 11.9667C17.6813 11.9533 18.0093 11.8947 18.228 11.7787C18.3176 11.7382 18.3955 11.6758 18.4547 11.5973C18.5105 11.5119 18.5358 11.4101 18.5266 11.3085C18.5175 11.2069 18.4742 11.1113 18.404 11.0373C18.3288 10.9511 18.2427 10.8749 18.148 10.8107C18.119 10.7894 18.0958 10.7611 18.0807 10.7285C18.0655 10.6958 18.0589 10.6599 18.0613 10.624C18.0627 10.5877 18.0734 10.5523 18.0923 10.5213C18.1112 10.4903 18.1377 10.4646 18.1693 10.4467C18.2289 10.4113 18.281 10.3646 18.3227 10.3093C18.3543 10.2753 18.3784 10.2351 18.3935 10.1913C18.4087 10.1474 18.4145 10.1009 18.4107 10.0547C18.4107 10.0547 18.4173 9.96666 18.264 9.86532C18.1187 9.76399 17.8067 9.66132 17.2453 9.66132C16.5333 9.66132 14.728 9.95199 13.0987 10.476C12.292 10.7387 11.5347 11.0587 10.9893 11.4147Z" fill="black"/>
<path d="M18.2346 10.9333C14.7573 10.9333 12.2333 11.9093 11.4253 12.3893C11.3761 12.4172 11.3179 12.4245 11.2634 12.4095C11.2089 12.3945 11.1626 12.3584 11.1346 12.3093C11.1081 12.2599 11.1017 12.2021 11.1165 12.148C11.1314 12.0939 11.1666 12.0476 11.2146 12.0187C12.0866 11.5093 14.692 10.512 18.2346 10.512C18.2907 10.512 18.3444 10.5343 18.3841 10.5739C18.4237 10.6135 18.446 10.6673 18.446 10.7233C18.446 10.7794 18.4237 10.8331 18.3841 10.8728C18.3444 10.9124 18.2907 10.9347 18.2346 10.9347" fill="black"/>
</svg>
