<svg width="32" height="33" viewBox="0 0 32 33" fill="none" xmlns="http://www.w3.org/2000/svg">
<path d="M16 32.167C24.8667 32.167 32 25.0337 32 16.167C32 7.30027 24.8667 0.166992 16 0.166992C7.13328 0.166992 0 7.30027 0 16.167C0 25.0337 7.13328 32.167 16 32.167Z" fill="#2775CA"/>
<path d="M20.4002 18.7C20.4002 16.3667 19.0002 15.5667 16.2003 15.2334C14.2003 14.9667 13.8003 14.4334 13.8003 13.4999C13.8003 12.5665 14.467 11.9667 15.8003 11.9667C17.0002 11.9667 17.667 12.3667 18.0002 13.3667C18.067 13.5667 18.2669 13.6999 18.4669 13.6999H19.5335C19.8002 13.6999 20.0002 13.4999 20.0002 13.2334V13.1667C19.7335 11.6999 18.5335 10.5667 17.0002 10.4334V8.83337C17.0002 8.56665 16.8002 8.36665 16.467 8.29993H15.467C15.2003 8.29993 15.0003 8.49993 14.9336 8.83337V10.3667C12.9336 10.6334 11.667 11.9667 11.667 13.6334C11.667 15.8334 13.0003 16.7 15.8003 17.0334C17.667 17.3667 18.2669 17.7667 18.2669 18.8334C18.2669 19.9001 17.3335 20.6334 16.067 20.6334C14.3336 20.6334 13.7336 19.9 13.5336 18.9C13.467 18.6334 13.267 18.5 13.067 18.5H11.9336C11.667 18.5 11.467 18.7 11.467 18.9667V19.0334C11.7336 20.7 12.8003 21.9 15.0003 22.2334V23.8334C15.0003 24.1 15.2003 24.3 15.5335 24.3667H16.5335C16.8002 24.3667 17.0002 24.1667 17.067 23.8334V22.2334C19.0669 21.9 20.4002 20.5 20.4002 18.7Z" fill="white"/>
<path d="M12.6016 25.7004C7.40161 23.8339 4.73489 18.0339 6.66833 12.9004C7.66833 10.1004 9.86833 7.96714 12.6016 6.96714C12.8683 6.83386 13.0016 6.63386 13.0016 6.30042V5.36714C13.0016 5.10042 12.8683 4.90042 12.6016 4.83386C12.5349 4.83386 12.4016 4.83386 12.3349 4.90042C6.00161 6.90042 2.53488 13.6339 4.53488 19.9671C5.73488 23.7004 8.60161 26.5671 12.3349 27.7671C12.6016 27.9004 12.8683 27.7671 12.9349 27.5004C13.0016 27.4339 13.0016 27.3671 13.0016 27.2339V26.3004C13.0016 26.1004 12.8016 25.8339 12.6016 25.7004ZM19.6683 4.90042C19.4016 4.76714 19.1349 4.90042 19.0683 5.16714C19.0016 5.23386 19.0016 5.30042 19.0016 5.43386V6.36714C19.0016 6.63386 19.2016 6.90042 19.4016 7.03386C24.6016 8.90042 27.2683 14.7004 25.3349 19.8339C24.3349 22.6339 22.1349 24.7671 19.4016 25.7671C19.1349 25.9004 19.0016 26.1004 19.0016 26.4339V27.3671C19.0016 27.6339 19.1349 27.8339 19.4016 27.9004C19.4683 27.9004 19.6016 27.9004 19.6683 27.8339C26.0016 25.8339 29.4683 19.1004 27.4683 12.7671C26.2683 8.96714 23.3349 6.10042 19.6683 4.90042Z" fill="white"/>
</svg>
