<svg width="36" height="32" viewBox="0 0 36 32" fill="none" xmlns="http://www.w3.org/2000/svg">
<path fill-rule="evenodd" clip-rule="evenodd" d="M6.59127 0.985262L0.0269872 14.6338C0.00200825 14.6846 -0.00590742 14.7419 0.00439778 14.7974C0.014703 14.853 0.0426885 14.9038 0.0842616 14.9425L17.8128 31.7585C17.8632 31.8063 17.9302 31.833 18 31.833C18.0698 31.833 18.1368 31.8063 18.1872 31.7585L35.9157 14.9435C35.9573 14.9049 35.9853 14.854 35.9956 14.7985C36.0059 14.743 35.998 14.6856 35.973 14.6349L29.4087 0.986312C29.3876 0.940474 29.3535 0.901644 29.3106 0.874462C29.2677 0.84728 29.2178 0.832895 29.1669 0.833028H6.83521C6.78405 0.832398 6.73379 0.846436 6.6905 0.873448C6.64722 0.90046 6.61275 0.939293 6.59127 0.985262Z" fill="#50AF95"/>
<path fill-rule="evenodd" clip-rule="evenodd" d="M20.2776 16.0358C20.1503 16.0452 19.4928 16.0841 18.0259 16.0841C16.8592 16.0841 16.0308 16.0494 15.7402 16.0358C11.2315 15.8395 7.86607 15.0626 7.86607 14.1324C7.86607 13.2022 11.2315 12.4263 15.7402 12.2268V15.262C16.0351 15.283 16.8793 15.3324 18.046 15.3324C19.4461 15.3324 20.1472 15.2746 20.2734 15.2631V12.2289C24.7726 12.4273 28.1306 13.2043 28.1306 14.1324C28.1306 15.0605 24.7737 15.8374 20.2734 16.0347L20.2776 16.0358ZM20.2776 11.915V9.19893H26.5566V5.05713H9.46127V9.19893H15.7392V11.9139C10.6364 12.146 6.79907 13.1465 6.79907 14.3455C6.79907 15.5445 10.6364 16.5439 15.7392 16.777V25.4806H20.2766V16.7739C25.3676 16.5418 29.1986 15.5424 29.1986 14.3444C29.1986 13.1465 25.3708 12.147 20.2766 11.9139L20.2776 11.915Z" fill="white"/>
</svg>
