<svg width="32" height="34" viewBox="0 0 32 34" fill="none" xmlns="http://www.w3.org/2000/svg">
<g clip-path="url(#clip0_1516_388)">
<path d="M26.0942 7.95703L25.2142 8.84282C27.3104 11.1473 28.4736 14.1635 28.4736 17.2938C28.4736 20.424 27.3104 23.4402 25.2142 25.7447L26.0942 26.6287C28.4261 24.0871 29.7217 20.749 29.7217 17.283C29.7217 13.8169 28.4261 10.4788 26.0942 7.93726V7.95703ZM7.61247 8.03249C9.90873 5.92011 12.9021 4.74944 16.0071 4.74944C19.1122 4.74944 22.1055 5.92011 24.4018 8.03249L25.28 7.1467C22.7478 4.7967 19.4352 3.49274 15.9974 3.49274C12.5595 3.49274 9.2469 4.7967 6.71469 7.1467L7.61247 8.03249ZM6.79469 25.7519C4.7006 23.4478 3.53858 20.4331 3.53858 17.3045C3.53858 14.1759 4.7006 11.1613 6.79469 8.85719L5.91469 7.9732C3.58236 10.5149 2.28638 13.8533 2.28638 17.3198C2.28638 20.7863 3.58236 24.1247 5.91469 26.6664L6.79469 25.7519ZM24.3929 26.5694C22.0967 28.6818 19.1033 29.8524 15.9982 29.8524C12.8932 29.8524 9.89984 28.6818 7.60358 26.5694L6.72536 27.4534C9.25756 29.8034 12.5702 31.1073 16.008 31.1073C19.4459 31.1073 22.7585 29.8034 25.2907 27.4534L24.3929 26.5694ZM18.4996 14.7792C18.4996 15.9184 17.4987 16.2939 16.4996 16.2939H14.9991V13.2646H16.9991C17.7636 13.2646 18.4996 13.8288 18.4996 14.7792ZM19.3796 19.8927C19.3796 21.1361 18 21.3481 16.9991 21.3481H14.9991V18.317H16.9991C17.8951 18.317 19.3796 18.6835 19.3796 19.8927ZM21.5467 14.3552C21.3689 12.5099 20 11.4319 18 11.2433V8.20857H15.9982V11.2271C15.5929 11.2271 15.4187 11.2271 15.0062 11.2415V8.20857H12.9991V11.2415H10V13.2628H11.12C11.4987 13.2628 11.9982 13.2628 11.9982 14.0641V20.8324C11.9982 20.8432 11.9982 21.3481 11.4187 21.3481H10.3058L10 23.3694H12.9991V26.4023H14.9991L14.9885 23.3694H16V26.4023H18V23.3694C20.6116 23.2095 22.2098 22.6615 22.4374 20.1982C22.6205 18.2164 21.696 17.3324 20.2169 16.9748C21.1165 16.5149 21.68 15.7045 21.5467 14.3534" fill="black"/>
<path d="M15.9964 2.45004C7.85422 2.45363 1.25867 9.10513 1.26222 17.3036C1.26756 25.5021 7.872 32.1446 16.0142 32.1411C24.1511 32.1357 30.7467 25.4931 30.7484 17.3C30.7396 9.10334 24.1387 2.45363 15.9964 2.45004ZM15.9964 33.4131C7.16089 33.4131 -0.00355423 26.1993 1.32284e-06 17.3C0.0017791 8.40261 7.16445 1.19053 16.0036 1.19232C24.8373 1.19412 31.9982 8.40441 32 17.3C31.9893 26.1939 24.8302 33.4042 15.9964 33.4131Z" fill="black"/>
</g>
<defs>
<clipPath id="clip0_1516_388">
<rect width="32" height="33" fill="white" transform="translate(0 0.833008)"/>
</clipPath>
</defs>
</svg>
