<svg width="22" height="20" viewBox="0 0 22 20" fill="none" xmlns="http://www.w3.org/2000/svg">
<path d="M19.2051 2.75003C19.7574 2.75003 20.2051 2.30231 20.2051 1.75003C20.2051 1.19774 19.7574 0.750025 19.2051 0.750025V1.75003V2.75003ZM4.19566 1.75003V2.75003L19.2051 2.75003V1.75003V0.750025L4.19566 0.750025L4.19566 1.75003ZM4.19566 6.60297V7.60297L12.5384 7.60297V6.60297V5.60297L4.19566 5.60297V6.60297ZM1.76919 4.1765H2.76919C2.76919 3.38868 3.40784 2.75003 4.19566 2.75003V1.75003L4.19566 0.750025C2.30327 0.750025 0.769188 2.28411 0.769188 4.1765H1.76919ZM1.76919 4.1765H0.769188C0.769188 6.06888 2.30327 7.60297 4.19566 7.60297V6.60297V5.60297C3.40784 5.60297 2.76919 4.96431 2.76919 4.1765H1.76919Z" fill="black"/>
<path d="M1.76929 9.51471L1.76929 4.17647" stroke="black" stroke-width="2"/>
<path d="M3.7688 18.75C3.3119 18.75 2.91893 18.751 2.60571 18.709C2.27795 18.6649 1.96308 18.5654 1.70825 18.3105C1.45359 18.0558 1.35388 17.7417 1.30981 17.4141C1.26768 17.1007 1.2688 16.7073 1.2688 16.25L1.2688 6.10254L18.2307 6.10254C18.688 6.10254 19.0814 6.10142 19.3948 6.14355C19.7224 6.18762 20.0365 6.28734 20.2913 6.54199C20.5461 6.79682 20.6456 7.1117 20.6897 7.43945C20.7318 7.75267 20.7307 8.14564 20.7307 8.60254V10.0146H16.9885C15.6566 10.0147 14.5764 11.0948 14.5764 12.4268C14.5766 13.7586 15.6567 14.8378 16.9885 14.8379H20.7307V16.25C20.7307 16.7073 20.7318 17.1007 20.6897 17.4141C20.6456 17.7418 20.5461 18.0558 20.2913 18.3105C20.0365 18.5653 19.7225 18.6649 19.3948 18.709C19.0814 18.7511 18.688 18.75 18.2307 18.75L3.7688 18.75Z" fill="black" stroke="black"/>
</svg>
