<svg width="18" height="21" viewBox="0 0 18 21" fill="none" xmlns="http://www.w3.org/2000/svg">
<path d="M10.9287 13.9199C11.0864 13.9201 11.2148 14.0484 11.2148 14.2061V20.6338H6.78613V14.2061C6.78615 14.0483 6.91448 13.9199 7.07227 13.9199H10.9287ZM9 0C10.4269 5.57626e-08 11.6248 1.02662 14.0205 3.08008L15.3057 4.18262C16.631 5.31865 17.2946 5.88613 17.6475 6.65332C18.0003 7.42051 18 8.29357 18 10.0391V15.4912C18 17.9154 18 19.1277 17.2471 19.8809C16.5319 20.596 15.4026 20.631 13.2148 20.6328V14.2061C13.2148 12.9438 12.1909 11.9201 10.9287 11.9199H7.07227C5.80991 11.9199 4.78615 12.9437 4.78613 14.2061V20.6328C2.59771 20.631 1.4682 20.5961 0.75293 19.8809C-3.16394e-05 19.1277 0 17.9154 0 15.4912V10.0391C1.16567e-09 8.29357 -0.000319464 7.42051 0.352539 6.65332C0.705429 5.88613 1.36896 5.31865 2.69434 4.18262L3.97949 3.08008C6.37519 1.02662 7.57315 0 9 0Z" fill="#222222"/>
</svg>
