<svg width="20" height="18" viewBox="0 0 20 18" fill="none" xmlns="http://www.w3.org/2000/svg">
<path d="M14 0C16.8284 0 18.2424 0.000226618 19.1211 0.878906C19.9998 1.75759 20 3.17157 20 6V12C20 14.8284 19.9998 16.2424 19.1211 17.1211C18.2424 17.9998 16.8284 18 14 18H6C3.17157 18 1.75759 17.9998 0.878906 17.1211C0.000226612 16.2424 0 14.8284 0 12V6C0 3.17157 0.000226594 1.75759 0.878906 0.878906C1.75759 0.000226618 3.17157 0 6 0H14ZM6 7C5.44772 7 5 7.44772 5 8V14C5 14.5523 5.44772 15 6 15C6.55228 15 7 14.5523 7 14V8C7 7.44772 6.55228 7 6 7ZM10 9C9.44771 9 9 9.44771 9 10V14C9 14.5523 9.44771 15 10 15C10.5523 15 11 14.5523 11 14V10C11 9.44771 10.5523 9 10 9ZM14 5C13.4477 5 13 5.44772 13 6V14C13 14.5523 13.4477 15 14 15C14.5523 15 15 14.5523 15 14V6C15 5.44772 14.5523 5 14 5Z" fill="#222222"/>
</svg>
