<svg width="22" height="20" viewBox="0 0 22 20" fill="none" xmlns="http://www.w3.org/2000/svg">
<path d="M2.11768 5.5L1.40825 4.79521L0.708076 5.5L1.40825 6.20478L2.11768 5.5ZM19 7.75C19 8.30228 19.4477 8.75 20 8.75C20.5523 8.75 21 8.30228 21 7.75L20 7.75L19 7.75ZM6.58826 1L5.87884 0.295215L1.40825 4.79521L2.11768 5.5L2.8271 6.20478L7.29768 1.70478L6.58826 1ZM2.11768 5.5L1.40825 6.20478L5.87884 10.7048L6.58826 10L7.29768 9.29521L2.8271 4.79521L2.11768 5.5ZM2.11768 5.5L2.11768 6.5L18 6.5L18 5.5L18 4.5L2.11768 4.5L2.11768 5.5ZM20 7.5L19 7.5L19 7.75L20 7.75L21 7.75L21 7.5L20 7.5ZM18 5.5L18 6.5C18.5523 6.5 19 6.94772 19 7.5L20 7.5L21 7.5C21 5.84314 19.6569 4.5 18 4.5L18 5.5Z" fill="#33363F"/>
<path d="M20 14.5L20.7094 13.7952L21.4096 14.5L20.7094 15.2048L20 14.5ZM3 14.5L3 13.5L3 14.5ZM2.10212e-06 12.25C2.05431e-06 11.6977 0.447718 11.25 1 11.25C1.55229 11.25 2 11.6977 2 12.25L1 12.25L2.10212e-06 12.25ZM15.5294 10L16.2388 9.29522L20.7094 13.7952L20 14.5L19.2906 15.2048L14.82 10.7048L15.5294 10ZM20 14.5L20.7094 15.2048L16.2388 19.7048L15.5294 19L14.82 18.2952L19.2906 13.7952L20 14.5ZM20 14.5L20 15.5L3 15.5L3 14.5L3 13.5L20 13.5L20 14.5ZM1 12.5L2.12376e-06 12.5L2.10212e-06 12.25L1 12.25L2 12.25L2 12.5L1 12.5ZM3 14.5L3 15.5C1.34315 15.5 2.26719e-06 14.1569 2.12376e-06 12.5L1 12.5L2 12.5C2 13.0523 2.44772 13.5 3 13.5L3 14.5Z" fill="#33363F"/>
</svg>
